<svg width="74" height="73" viewBox="0 0 74 73" fill="none" xmlns="http://www.w3.org/2000/svg">
<path d="M37 72.2598C56.7496 72.2598 72.7599 56.2496 72.7599 36.5C72.7599 16.7504 56.7496 0.740234 37 0.740234C17.2504 0.740234 1.24023 16.7504 1.24023 36.5C1.24023 56.2496 17.2504 72.2598 37 72.2598Z" stroke="#1B1918" stroke-width="0.5" stroke-miterlimit="10"/>
<path d="M17.6553 50.7962V32.6329C17.6553 21.9491 26.3166 13.2926 36.9955 13.2926C47.6745 13.2926 56.3358 21.9539 56.3358 32.6329V48.1253" stroke="#1B1918" stroke-width="0.5" stroke-miterlimit="10"/>
<path d="M21.3398 50.4407V32.1093C21.3398 23.4575 28.3535 16.4487 37.0004 16.4487C45.6473 16.4487 52.6609 23.4623 52.6609 32.1093V47.2654" stroke="#1B1918" stroke-width="0.5" stroke-miterlimit="10"/>
<path d="M24.918 50.4408V32.2919C24.918 25.6193 30.3271 20.2102 36.9996 20.2102C43.6722 20.2102 49.0813 25.6193 49.0813 32.2919V46.4536" stroke="#1B1918" stroke-width="0.5" stroke-miterlimit="10"/>
<path d="M28.4062 50.9547V32.0756C28.4062 27.3294 32.2541 23.4816 37.0003 23.4816C41.7465 23.4816 45.5944 27.3294 45.5944 32.0756V46.4583" stroke="#1B1918" stroke-width="0.5" stroke-miterlimit="10"/>
<path d="M2.79688 46.5256C2.79688 46.5256 5.11233 49.97 10.8289 50.7242C15.5463 51.3487 22.0939 52.4055 28.3197 60.1397C34.5407 67.8739 46.1468 71.0685 52.0315 69.0509" stroke="#1B1918" stroke-width="0.5" stroke-miterlimit="10"/>
<path d="M65.0638 58.2086C65.0638 58.2086 57.6515 54.6249 48.9181 55.0957C34.8764 55.8547 30.4233 47.7794 14.6475 51.3631" stroke="#1B1918" stroke-width="0.5" stroke-miterlimit="10"/>
<path d="M70.7809 48.2838C70.7809 48.2838 63.8538 50.0852 54.4671 47.6929C44.797 45.2285 37.4663 45.805 28.4062 50.9499" stroke="#1B1918" stroke-width="0.5" stroke-miterlimit="10"/>
</svg>
