<svg xmlns="http://www.w3.org/2000/svg" fill="none" viewBox="0 0 81 17" height="17" width="81">
<path fill="#F4C01D" d="M8.16667 1.83301L10.2267 6.00634L14.8333 6.67967L11.5 9.92634L12.2867 14.513L8.16667 12.3463L4.04667 14.513L4.83333 9.92634L1.5 6.67967L6.10667 6.00634L8.16667 1.83301Z"></path>
<path fill="#F4C01D" d="M24.1667 1.83301L26.2267 6.00634L30.8333 6.67967L27.5 9.92634L28.2867 14.513L24.1667 12.3463L20.0467 14.513L20.8333 9.92634L17.5 6.67967L22.1067 6.00634L24.1667 1.83301Z"></path>
<path fill="#F4C01D" d="M40.1667 1.83301L42.2267 6.00634L46.8333 6.67967L43.5 9.92634L44.2867 14.513L40.1667 12.3463L36.0467 14.513L36.8333 9.92634L33.5 6.67967L38.1067 6.00634L40.1667 1.83301Z"></path>
<path fill="#F4C01D" d="M56.1667 1.83301L58.2267 6.00634L62.8333 6.67967L59.5 9.92634L60.2867 14.513L56.1667 12.3463L52.0467 14.513L52.8333 9.92634L49.5 6.67967L54.1067 6.00634L56.1667 1.83301Z"></path>
<path fill="#F4C01D" d="M72.1667 1.83301L74.2267 6.00634L78.8333 6.67967L75.5 9.92634L76.2867 14.513L72.1667 12.3463L68.0467 14.513L68.8333 9.92634L65.5 6.67967L70.1067 6.00634L72.1667 1.83301Z"></path>
</svg>
