<svg xmlns="http://www.w3.org/2000/svg" fill="none" viewBox="0 0 194 29" height="29" width="194">
<g clip-path="url(#clip0_1771_6694)">
<path fill="#111010" d="M16.141 12.0655V13.702L20.0547 13.7003C19.9346 14.6029 19.6301 15.2638 19.1672 15.7264C18.5964 16.2968 17.7054 16.9246 16.141 16.9246C13.7291 16.9246 11.8427 14.982 11.8427 12.5716C11.8427 10.1612 13.7291 8.21855 16.141 8.21855C17.4427 8.21855 18.3928 8.72986 19.0941 9.38725L20.2496 8.23247C19.2716 7.29855 17.97 6.58203 16.1427 6.58203C12.8399 6.58203 10.0625 9.27073 10.0625 12.5716C10.0625 15.8725 12.8399 18.5612 16.1427 18.5612C17.9247 18.5612 19.2699 17.9768 20.3227 16.8812C21.4051 15.7994 21.741 14.2812 21.741 13.0533C21.741 12.6881 21.7131 12.3507 21.6592 12.0655H16.141ZM49.1543 18.3264V7.02205H47.5011V18.3264H49.1543ZM26.2707 18.5629C28.4042 18.5629 30.1426 16.9264 30.1426 14.7055C30.1426 12.469 28.4042 10.8481 26.2707 10.8481C24.1372 10.8481 22.3988 12.469 22.3988 14.7055C22.3988 16.9264 24.1372 18.5629 26.2707 18.5629ZM26.2707 12.3681C27.4401 12.3681 28.4477 13.3177 28.4477 14.7055C28.4477 16.0777 27.4401 17.0429 26.2707 17.0429C25.1013 17.0429 24.0937 16.0794 24.0937 14.7055C24.0937 13.3177 25.1013 12.3681 26.2707 12.3681ZM34.6236 18.5629C36.757 18.5629 38.4955 16.9264 38.4955 14.7055C38.4955 12.469 36.757 10.8481 34.6236 10.8481C32.4901 10.8481 30.7516 12.4708 30.7516 14.7055C30.7516 16.9264 32.4901 18.5629 34.6236 18.5629ZM34.6236 12.3681C35.793 12.3681 36.8006 13.3177 36.8006 14.7055C36.8006 16.0777 35.793 17.0429 34.6236 17.0429C33.4542 17.0429 32.4466 16.0794 32.4466 14.7055C32.4466 13.3177 33.4542 12.3681 34.6236 12.3681ZM46.5004 11.0829V18.0064C46.5004 20.8551 44.8194 22.0186 42.8321 22.0186C40.9613 22.0186 39.8354 20.7681 39.4108 19.7455L40.8865 19.1316C41.1493 19.7594 41.7932 20.5003 42.8303 20.5003C44.1024 20.5003 44.8907 19.716 44.8907 18.2394V17.6847H44.8315C44.4522 18.1525 43.7213 18.5612 42.799 18.5612C40.8691 18.5612 39.1011 16.8812 39.1011 14.7194C39.1011 12.5421 40.8691 10.8481 42.799 10.8481C43.7196 10.8481 44.4504 11.2568 44.8315 11.7108H44.8907V11.0829H46.5004ZM45.0108 14.7194C45.0108 13.3612 44.1041 12.3681 42.9504 12.3681C41.781 12.3681 40.8012 13.3612 40.8012 14.7194C40.8012 16.0638 41.781 17.0429 42.9504 17.0429C44.1041 17.0429 45.0108 16.0638 45.0108 14.7194ZM55.5965 15.9751L56.9121 16.8517C56.4875 17.4795 55.4643 18.5612 53.6962 18.5612C51.5036 18.5612 49.8661 16.8673 49.8661 14.7038C49.8661 12.4099 51.5175 10.8464 53.5065 10.8464C55.5095 10.8464 56.4892 12.4395 56.8094 13.3003L56.9852 13.7386L51.8255 15.8743C52.2205 16.6482 52.8348 17.043 53.6962 17.043C54.5594 17.043 55.158 16.6186 55.5965 15.9751ZM51.5471 14.5873L54.9962 13.156C54.8065 12.6743 54.2357 12.3386 53.564 12.3386C52.7026 12.3386 51.5036 13.0986 51.5471 14.5873Z" clip-rule="evenodd" fill-rule="evenodd"></path>
</g>
<path fill="#F4C01D" d="M70.1667 7.83301L72.2267 12.0063L76.8333 12.6797L73.5 15.9263L74.2867 20.513L70.1667 18.3463L66.0467 20.513L66.8333 15.9263L63.5 12.6797L68.1067 12.0063L70.1667 7.83301Z"></path>
<path fill="#F4C01D" d="M86.1667 7.83301L88.2267 12.0063L92.8333 12.6797L89.5 15.9263L90.2867 20.513L86.1667 18.3463L82.0467 20.513L82.8333 15.9263L79.5 12.6797L84.1067 12.0063L86.1667 7.83301Z"></path>
<path fill="#F4C01D" d="M102.167 7.83301L104.227 12.0063L108.833 12.6797L105.5 15.9263L106.287 20.513L102.167 18.3463L98.0467 20.513L98.8333 15.9263L95.5 12.6797L100.107 12.0063L102.167 7.83301Z"></path>
<path fill="#F4C01D" d="M118.167 7.83301L120.227 12.0063L124.833 12.6797L121.5 15.9263L122.287 20.513L118.167 18.3463L114.047 20.513L114.833 15.9263L111.5 12.6797L116.107 12.0063L118.167 7.83301Z"></path>
<path fill="#F4C01D" d="M134.167 7.83301L136.227 12.0063L140.833 12.6797L137.5 15.9263L138.287 20.513L134.167 18.3463L130.047 20.513L130.833 15.9263L127.5 12.6797L132.107 12.0063L134.167 7.83301Z"></path>
<path fill="#111010" d="M151.559 19V16.746H147.373V15.066L152.147 9.06H153.435V15.052H154.667V16.746H153.435V19H151.559ZM149.263 15.052H151.769V11.888L149.263 15.052ZM156.094 20.61L156.472 18.944H155.884V16.984H157.508V18.944L156.934 20.61H156.094ZM166.124 15.682C166.124 16.326 165.96 16.9093 165.634 17.432C165.316 17.9547 164.882 18.37 164.332 18.678C163.79 18.986 163.174 19.14 162.484 19.14C161.737 19.14 161.088 18.958 160.538 18.594C159.996 18.23 159.576 17.7073 159.278 17.026C158.979 16.3447 158.83 15.528 158.83 14.576C158.83 13.372 158.984 12.3547 159.292 11.524C159.609 10.684 160.057 10.054 160.636 9.634C161.214 9.20467 161.896 8.99 162.68 8.99C163.305 8.99 163.879 9.12533 164.402 9.396C164.934 9.66667 165.382 10.054 165.746 10.558L164.668 11.734C164.444 11.3887 164.154 11.118 163.8 10.922C163.445 10.7167 163.062 10.614 162.652 10.614C162.232 10.614 161.868 10.726 161.56 10.95C161.252 11.174 161.014 11.5007 160.846 11.93C160.678 12.35 160.584 12.8587 160.566 13.456C160.696 13.232 160.864 13.0407 161.07 12.882C161.275 12.714 161.513 12.588 161.784 12.504C162.054 12.4107 162.344 12.364 162.652 12.364C163.314 12.364 163.907 12.5133 164.43 12.812C164.952 13.1013 165.363 13.498 165.662 14.002C165.97 14.4967 166.124 15.0567 166.124 15.682ZM162.484 17.558C162.82 17.558 163.128 17.474 163.408 17.306C163.688 17.1287 163.912 16.9 164.08 16.62C164.248 16.3307 164.332 16.018 164.332 15.682C164.332 15.346 164.248 15.0427 164.08 14.772C163.912 14.492 163.688 14.2727 163.408 14.114C163.137 13.946 162.834 13.862 162.498 13.862C162.162 13.862 161.854 13.946 161.574 14.114C161.294 14.2727 161.07 14.492 160.902 14.772C160.743 15.0427 160.664 15.346 160.664 15.682C160.664 16.018 160.748 16.3307 160.916 16.62C161.084 16.9 161.308 17.1287 161.588 17.306C161.868 17.474 162.166 17.558 162.484 17.558ZM175.943 9.06L168.999 19H166.927L173.857 9.06H175.943ZM179.787 19.14C179.068 19.14 178.419 18.986 177.841 18.678C177.271 18.3607 176.833 17.936 176.525 17.404L177.603 16.284C177.873 16.648 178.2 16.9373 178.583 17.152C178.975 17.3667 179.381 17.474 179.801 17.474C180.137 17.474 180.435 17.404 180.697 17.264C180.958 17.124 181.159 16.928 181.299 16.676C181.448 16.424 181.523 16.1347 181.523 15.808C181.523 15.4907 181.453 15.2107 181.313 14.968C181.173 14.716 180.981 14.5247 180.739 14.394C180.496 14.254 180.221 14.184 179.913 14.184C179.614 14.184 179.329 14.254 179.059 14.394C178.788 14.5247 178.573 14.716 178.415 14.968H176.777L177.925 9.06H182.825V10.768H179.283L178.891 12.994C179.003 12.8727 179.166 12.7747 179.381 12.7C179.595 12.616 179.861 12.574 180.179 12.574C180.804 12.574 181.364 12.714 181.859 12.994C182.353 13.2647 182.741 13.638 183.021 14.114C183.31 14.59 183.455 15.1407 183.455 15.766C183.455 16.4287 183.291 17.0167 182.965 17.53C182.647 18.034 182.213 18.4307 181.663 18.72C181.121 19 180.496 19.14 179.787 19.14Z"></path>
<defs>
<clipPath id="clip0_1771_6694">
<rect transform="translate(10 6.5)" fill="white" height="16" width="47.3333"></rect>
</clipPath>
</defs>
</svg>
