<svg width="46" height="71" viewBox="0 0 46 71" fill="none" xmlns="http://www.w3.org/2000/svg">
<g clip-path="url(#clip0_412_1952)">
<path fill-rule="evenodd" clip-rule="evenodd" d="M22.889 58.2957C21.3411 58.2957 19.7932 58.2989 18.2453 58.3022C14.1545 58.3108 10.0638 58.3194 5.97394 58.268C4.29911 58.2464 2.88206 57.4748 1.84166 56.0887C1.12079 55.1276 0.739512 54.1065 0.736425 52.9098C0.734071 52.0886 0.707385 51.2673 0.6807 50.4461C0.654889 49.6517 0.629079 48.8574 0.625284 48.0631C0.602129 43.6829 0.600586 39.2997 0.600586 34.918C0.600586 30.8906 0.600586 26.8632 0.626827 22.8342C0.634546 21.6745 0.668505 20.507 0.810519 19.3581C0.882439 18.7803 1.03036 18.2129 1.17852 17.6445C1.27204 17.2858 1.36565 16.9267 1.44032 16.5643C1.75522 15.038 2.33408 13.6026 3.0781 12.2458C3.56289 11.3588 4.12786 10.5143 4.692 9.67093L4.69201 9.67092L4.69202 9.6709C4.841 9.44819 4.98992 9.22557 5.1373 9.00227C6.12985 7.49911 7.44193 6.28548 8.82193 5.14271C9.99045 4.17396 11.247 3.32689 12.6347 2.6862C12.8167 2.60222 12.9985 2.51758 13.1804 2.43292L13.1804 2.43291L13.1804 2.43291C13.9658 2.06731 14.7524 1.70117 15.5583 1.38479C15.9823 1.21922 16.4315 1.1144 16.8802 1.0097C17.0784 0.963442 17.2766 0.917206 17.4724 0.865765C17.6411 0.821496 17.809 0.774 17.9769 0.726529L17.9769 0.726527L17.9769 0.726523C18.3404 0.623707 18.7035 0.52101 19.0731 0.45147C19.7168 0.3298 20.3713 0.209669 21.0243 0.189648C22.3379 0.149604 23.6577 0.131123 24.9698 0.195808C25.5005 0.222063 26.0265 0.33768 26.5522 0.453242C26.7667 0.500373 26.981 0.547494 27.1957 0.588541C27.2606 0.600918 27.3256 0.613129 27.3906 0.62534L27.3906 0.625347C27.7704 0.696709 28.15 0.768035 28.5217 0.871925C28.6427 0.905431 28.7639 0.93864 28.8853 0.971871L28.8854 0.971894C29.595 1.16625 30.3073 1.36133 30.9915 1.62043C31.7802 1.92075 32.549 2.28731 33.2899 2.69082C34.2392 3.20676 35.1932 3.73195 36.0731 4.35262C37.6445 5.46151 39.0754 6.74136 40.2563 8.25993C40.9062 9.09622 41.5406 9.95253 42.0839 10.8566C42.6736 11.8392 43.2046 12.8649 43.66 13.9153C43.965 14.62 44.1649 15.3736 44.363 16.1205L44.3631 16.1207L44.3631 16.1209C44.3875 16.2129 44.4119 16.3048 44.4364 16.3964C44.618 17.0748 44.7721 17.7589 44.9262 18.4434L44.9264 18.4441L44.9266 18.4449L44.9267 18.4457L44.9269 18.4464L44.9271 18.4472L44.9272 18.448L44.9274 18.4487C44.9825 18.6934 45.0376 18.9381 45.094 19.1825C45.1202 19.2965 45.1311 19.4151 45.1341 19.5337C45.1567 20.4629 45.1839 21.392 45.2111 22.321C45.2731 24.4392 45.335 26.5572 45.3425 28.6759C45.3719 36.4967 45.3719 44.3159 45.3379 52.1352C45.3302 53.8801 44.8671 55.5296 43.5041 56.7787C42.794 57.4286 41.9666 57.9122 40.9864 58.057L40.794 58.0853C40.1422 58.1818 39.4848 58.279 38.83 58.2818C34.7442 58.2984 30.6565 58.2968 26.5692 58.2951H26.5691H26.5691H26.569H26.5689H26.5688H26.5688H26.5687C25.3426 58.2946 24.1165 58.2941 22.8905 58.2941L22.889 58.2957ZM42.3942 36.5367H42.3849C42.3849 35.2265 42.3853 33.9163 42.3856 32.6061V32.606V32.6059V32.6058V32.6057V32.6056V32.6055V32.6054C42.3866 29.1123 42.3875 25.6194 42.3819 22.1273C42.3819 21.9446 42.384 21.7612 42.3861 21.5777L42.3861 21.5771C42.3944 20.8634 42.4028 20.1468 42.2862 19.4536C42.0917 18.2939 41.7891 17.1419 41.4155 16.0237C41.0651 14.9749 40.6082 13.9523 40.1174 12.9589C39.5673 11.8398 38.8008 10.8553 38.0329 9.86904L37.8606 9.64759C36.9375 8.45861 35.8107 7.47908 34.6097 6.62739C33.3995 5.768 32.0473 5.07186 30.6812 4.46505C29.437 3.91368 28.1126 3.50093 26.7866 3.17442C26.1504 3.01758 25.485 2.97814 24.8195 2.93869C24.5178 2.92081 24.2161 2.90292 23.917 2.87409C23.7784 2.86092 23.6393 2.83991 23.5002 2.81891C23.2165 2.77608 22.933 2.73328 22.6543 2.75704C21.5645 2.84945 20.4732 2.97266 19.3927 3.14362C18.6178 3.26529 17.8444 3.43624 17.0973 3.67034C16.6712 3.80348 16.2611 3.9836 15.8504 4.16391L15.8504 4.16392C15.5961 4.27563 15.3415 4.38741 15.0829 4.48815C13.513 5.10266 12.1268 6.02058 10.8009 7.03091C9.6277 7.92572 8.59965 8.96839 7.67502 10.1173C6.69636 11.3356 5.87978 12.6524 5.19904 14.0493C4.91347 14.6376 4.66804 15.249 4.46891 15.8697C4.25589 16.5397 4.09844 17.2296 3.95334 17.9196C3.91413 18.1078 3.8704 18.2963 3.82661 18.4851L3.82661 18.4851C3.6894 19.0766 3.55162 19.6706 3.55045 20.2637C3.52112 31.0338 3.52575 41.804 3.53656 52.5726C3.53656 53.0408 3.623 53.5259 3.7681 53.971C4.06448 54.8827 4.79924 55.3648 5.70381 55.5358C6.22742 55.6343 6.77475 55.6323 7.31565 55.6303H7.31604H7.31642H7.3168H7.31718H7.31756H7.31794C7.39338 55.63 7.4687 55.6297 7.54381 55.6297C17.7286 55.6343 27.9119 55.6343 38.0952 55.6297C38.7435 55.6297 39.395 55.6097 40.0402 55.5558C40.829 55.4896 41.4464 55.1061 41.9049 54.4654C42.3726 53.8124 42.3927 53.0639 42.3927 52.3107C42.395 48.3683 42.3947 44.4251 42.3944 40.4809V40.4807V40.4804V40.4801V40.4798V40.4795V40.4792V40.4789L42.3942 36.5367ZM44.668 30.2792C44.3917 30.233 44.1431 30.1914 43.8946 30.1483C43.1197 30.0189 43.0379 30.0882 43.0379 30.8721C43.0379 32.3274 43.0383 33.7828 43.0388 35.2382V35.2383V35.2384V35.2384V35.2385V35.2386V35.2386V35.2387C43.0405 41.0608 43.0422 46.8834 43.0163 52.705C43.0143 53.1219 42.8836 53.5368 42.7527 53.9527C42.6843 54.1699 42.6159 54.3873 42.5656 54.6055C42.5285 54.7642 42.4837 55.006 42.5671 55.0922C42.6366 55.1652 42.6972 55.2519 42.7582 55.3392C42.9329 55.5892 43.1106 55.8435 43.5087 55.7899C43.5735 55.7806 43.6662 55.756 43.6909 55.7098C43.7573 55.5778 43.8259 55.4467 43.8945 55.3155L43.8946 55.3153C44.2831 54.5726 44.6711 53.8308 44.6711 52.9499C44.6677 47.6801 44.6684 42.4111 44.669 37.1412V37.1408V37.1404V37.14V37.1395V37.1391V37.1387V37.1382C44.6693 35.0302 44.6695 32.922 44.6695 30.8136V30.2776L44.668 30.2792ZM2.84965 41.9795H2.8481L2.84819 40.1769C2.8484 37.1723 2.84862 34.1678 2.84347 31.1632C2.84347 30.9692 2.80642 30.6195 2.73851 30.6088C2.31246 30.5333 1.86944 30.4979 1.44032 30.5395C1.35542 30.5472 1.25663 30.9522 1.25663 31.174C1.25238 34.4253 1.2517 37.6766 1.25103 40.9279C1.25022 44.7705 1.24942 48.613 1.24273 52.4555C1.24119 53.4196 1.47582 54.3067 1.92038 55.1492C2.34797 55.9593 2.49307 55.9809 3.14757 55.3463C3.17415 55.3203 3.20497 55.2959 3.23574 55.2715C3.29966 55.221 3.36336 55.1705 3.38837 55.1061C3.44085 54.9721 3.49642 54.7796 3.43777 54.6702C3.092 54.0341 2.84965 53.378 2.84965 52.648V41.9811V41.9795ZM44.6683 29.4197C44.6681 29.4562 44.668 29.4932 44.668 29.5308C43.5812 29.6535 43.0379 29.2217 43.0379 28.2354C43.0379 27.6387 43.0399 27.042 43.0419 26.4453C43.047 24.9536 43.052 23.4619 43.0256 21.9702C43.0055 20.8536 42.9638 19.7231 42.7724 18.6265C42.6563 17.9591 42.4489 17.3062 42.2413 16.6529C42.1261 16.2902 42.0108 15.9273 41.9111 15.5617C41.5761 14.3342 41.0435 13.1945 40.3227 12.1503C39.8473 11.4619 39.3482 10.7893 38.8491 10.1166L38.849 10.1165L38.8489 10.1163L38.8484 10.1157L38.8482 10.1154C38.5827 9.75748 38.3171 9.39956 38.0551 9.03924C37.9295 8.86704 37.8123 8.68944 37.6895 8.50317C37.6388 8.42621 37.587 8.34778 37.5333 8.26763C37.6202 8.20087 37.7061 8.13322 37.7917 8.06569C38.0243 7.88242 38.2557 7.70009 38.5027 7.53915C38.5845 7.48524 38.8115 7.52683 38.8809 7.60537C38.9646 7.69994 39.0491 7.79422 39.1336 7.88859C39.5324 8.33374 39.9331 8.78103 40.2656 9.27026C41.0358 10.4038 41.7737 11.562 42.4668 12.7432C42.8017 13.3146 43.0364 13.9492 43.2602 14.576C43.5843 15.4831 43.8884 16.4011 44.1416 17.3313C44.2658 17.7843 44.3285 18.2546 44.3911 18.724C44.4079 18.8498 44.4246 18.9756 44.4426 19.1009C44.7413 21.1982 44.7057 23.3031 44.6701 25.4082V25.4084V25.4085V25.4087V25.4088V25.409V25.4091V25.4093C44.6503 26.5781 44.6305 27.7469 44.668 28.9146C44.671 29.0462 44.67 29.1771 44.669 29.3139V29.3141V29.3143V29.3145V29.3147V29.3149V29.3151V29.3153L44.6683 29.4197ZM7.17421 7.54794L7.17422 7.54793L7.17423 7.54793L7.17423 7.54792L7.17424 7.54792C7.21204 7.52179 7.24936 7.49599 7.28376 7.46887C7.62942 7.70786 7.95647 7.93358 8.33057 8.19176L8.33211 8.19282L8.33268 8.19322L8.41596 8.25069C8.25796 8.45162 8.0981 8.64967 7.93878 8.84704L7.93877 8.84704L7.93873 8.8471C7.57661 9.29571 7.21733 9.74081 6.88931 10.2082C6.35676 10.9659 5.85663 11.7468 5.39354 12.5477C5.02307 13.1883 4.70508 13.8629 4.40871 14.5406C4.16018 15.1073 3.94871 15.6926 3.77119 16.2855C3.53193 17.0849 3.29575 17.8919 3.14602 18.7113C2.9932 19.5491 2.87589 20.4039 2.86508 21.2525C2.83852 23.1363 2.84211 25.0201 2.8457 26.904L2.8457 26.9041C2.84712 27.6477 2.84854 28.3913 2.8481 29.1349C2.8481 29.8079 2.84656 29.8079 2.17971 29.8094C2.12889 29.8094 2.07789 29.8082 2.02684 29.807L2.02667 29.807C1.92427 29.8046 1.82165 29.8022 1.71971 29.8094C1.39092 29.8341 1.25354 29.6862 1.25354 29.3674C1.25585 28.5085 1.25442 27.6495 1.25298 26.7905V26.7905V26.7904V26.7904V26.7904V26.7904V26.7904V26.7903C1.24963 24.7858 1.24628 22.7812 1.29059 20.7781C1.31528 19.7031 1.49743 18.6219 1.72589 17.5669C1.84032 17.0359 2.02263 16.5198 2.2052 16.003C2.33292 15.6414 2.46078 15.2794 2.56562 14.9118C2.97468 13.4825 3.66468 12.1796 4.48126 10.9552C5.02215 10.1423 5.63728 9.37664 6.25252 8.61086C6.48357 8.32327 6.71464 8.03566 6.94179 7.74553C7.00345 7.66598 7.08999 7.60615 7.17421 7.54794L7.17421 7.54794ZM29.7868 56.2329H29.7867C27.8147 56.2343 25.8423 56.2358 23.8707 56.2242C23.4015 56.2227 23.1807 56.3505 23.1931 56.8526C23.2131 57.6442 23.2641 57.7782 23.8491 57.7674C25.9862 57.726 28.1235 57.7512 30.2607 57.7764H30.261C33.6133 57.8158 36.9655 57.8553 40.3165 57.638C41.2257 57.5795 41.9219 57.1729 42.635 56.7186C42.8913 56.5538 42.8897 56.409 42.6767 56.215C42.5962 56.142 42.5256 56.0591 42.4551 55.9761L42.4551 55.9761L42.455 55.976L42.455 55.976C42.4079 55.9207 42.3609 55.8654 42.3109 55.813C42.05 55.5358 41.8092 55.5204 41.4279 55.6944C40.7595 55.9978 40.068 56.2535 39.2869 56.2442C37.4867 56.2221 35.6873 56.2262 33.8876 56.2302H33.8874H33.8873H33.8871H33.887H33.8868H33.8866H33.8865C33.1773 56.2318 32.468 56.2334 31.7586 56.2334V56.2319C31.1015 56.2319 30.4443 56.2324 29.787 56.2329H29.7868ZM14.0857 57.7874V57.7736C16.6311 57.7736 19.1766 57.7736 21.722 57.7705C21.8717 57.7705 22.0338 57.7643 22.1666 57.7073C22.5943 57.5255 22.5401 57.1922 22.4889 56.8768C22.4738 56.7836 22.4589 56.6919 22.4568 56.6062C22.449 56.2381 22.1033 56.2273 21.7945 56.2288C20.9788 56.2293 20.163 56.23 19.3473 56.2307C15.1061 56.2343 10.865 56.238 6.62381 56.2134C6.22371 56.2102 5.82362 56.0923 5.42403 55.9744C5.2455 55.9218 5.06706 55.8692 4.88877 55.8269C4.79831 55.8052 4.70305 55.769 4.60824 55.7329C4.41348 55.6589 4.22064 55.5856 4.07528 55.6405C3.80506 55.7418 3.5897 56.0333 3.40268 56.2864L3.38374 56.312C3.31582 56.4029 3.35287 56.6955 3.43622 56.7478C3.54939 56.8175 3.66239 56.8918 3.77591 56.9664L3.77593 56.9664L3.77595 56.9664L3.77599 56.9664L3.77603 56.9665L3.77609 56.9665L3.77651 56.9668L3.77671 56.9669L3.77673 56.9669C4.16775 57.224 4.56485 57.4851 4.99528 57.5734C5.86743 57.752 6.78126 57.769 7.6781 57.7797C9.21087 57.7985 10.7452 57.7951 12.2789 57.7917H12.2792H12.2795H12.2799H12.2802H12.2805H12.2808H12.2812C12.8828 57.7903 13.4844 57.789 14.0857 57.789V57.7874ZM22.466 0.801079C16.7392 1.04134 11.8551 3.07277 7.65649 6.94004C7.72592 6.99905 7.78935 7.05481 7.84941 7.10761L7.84942 7.10761L7.84943 7.10762L7.84945 7.10764L7.84946 7.10765L7.84947 7.10766L7.8495 7.10768L7.84951 7.10769C7.96968 7.21333 8.07636 7.30711 8.19059 7.3913C8.7432 7.79789 9.00562 7.76863 9.55361 7.31583C9.98273 6.9616 10.4196 6.61045 10.8842 6.3055L11.041 6.20324C11.9335 5.62086 12.8282 5.03709 13.7615 4.52203C14.9347 3.8721 16.1943 3.40698 17.5064 3.09125C17.7533 3.03183 17.9998 2.97006 18.2463 2.90828C18.8687 2.7523 19.491 2.59633 20.1213 2.47828C20.6476 2.37961 21.1806 2.3226 21.7242 2.26445C21.9697 2.23819 22.2174 2.2117 22.4676 2.18104V0.801079H22.466ZM38.2465 6.96622C34.1096 2.90336 29.1515 1.03056 23.4416 0.848823V2.15023C23.72 2.18434 23.9954 2.21718 24.2687 2.24976L24.2688 2.24978C24.8471 2.31872 25.4159 2.38654 25.9839 2.46288C26.0947 2.4776 26.206 2.49138 26.3173 2.50518L26.3173 2.50518C26.7766 2.5621 27.2374 2.61921 27.6773 2.74318C28.5525 2.98806 29.4278 3.25913 30.2598 3.61336C31.3202 4.06462 32.3869 4.53744 33.3656 5.13809C34.1336 5.60926 34.8619 6.14281 35.5906 6.6767L35.5908 6.67681L35.5908 6.67686L35.5909 6.67688L35.5912 6.67713C35.9842 6.96505 36.3774 7.25307 36.777 7.53145C36.9082 7.62232 37.1536 7.69932 37.2678 7.63926C37.5148 7.50771 37.7415 7.33903 37.9749 7.16537C38.064 7.09912 38.154 7.03214 38.2465 6.96622ZM22.7254 9.12394L22.7331 9.12252C22.7331 9.32525 22.7331 9.52492 22.7346 9.72459C22.7346 10.1754 22.7341 10.6263 22.7336 11.0771V11.0777C22.7322 12.4302 22.7308 13.7826 22.7423 15.1351C22.7454 15.5155 22.6497 15.6849 22.2314 15.6649C21.3963 15.6248 20.5982 15.8066 19.8141 16.0884C19.6782 16.1377 19.3726 16.0299 19.3109 15.9098C19.2173 15.7279 19.1677 15.5248 19.118 15.3211L19.118 15.3211L19.118 15.3211L19.118 15.3211L19.118 15.3211L19.118 15.3211L19.118 15.3211L19.118 15.321C19.0898 15.2056 19.0616 15.09 19.0253 14.978L18.9532 14.757C18.785 14.2401 18.6163 13.7218 18.4109 13.2176C18.3752 13.1296 18.2532 13.0758 18.1307 13.0219L18.1306 13.0219C18.073 12.9964 18.0153 12.971 17.9664 12.9419C17.9524 12.9915 17.9319 13.0426 17.9115 13.0938L17.9115 13.0938C17.8665 13.2065 17.8215 13.3189 17.846 13.4132L17.8822 13.5524C18.1 14.3892 18.3192 15.231 18.6131 16.0437C18.7317 16.3698 18.5978 16.439 18.4127 16.5346C18.3906 16.546 18.3678 16.5578 18.3445 16.5705C18.1982 16.6499 18.051 16.7281 17.9036 16.8064L17.9036 16.8065L17.9036 16.8065L17.9036 16.8065L17.9035 16.8065L17.9035 16.8065L17.9035 16.8065L17.9035 16.8065C17.4306 17.0578 16.9567 17.3096 16.5107 17.6008C16.2576 17.7656 16.1572 17.7733 15.9982 17.5315C15.7555 17.158 15.4948 16.7942 15.2344 16.4309L15.2344 16.4309L15.2344 16.4309L15.2344 16.4309L15.2343 16.4308L15.2343 16.4308L15.2343 16.4308L15.2343 16.4308L15.1909 16.3703C14.8544 15.8986 14.5167 15.4278 14.1789 14.9568L14.1789 14.9568L14.1789 14.9568L14.1789 14.9567L14.1789 14.9567L14.1788 14.9567L14.1788 14.9567L14.1783 14.9559L14.1781 14.9556L14.1779 14.9554L14.1777 14.9551L14.1775 14.9549L14.1773 14.9546L14.1771 14.9543L14.177 14.9541C13.6771 14.2571 13.1771 13.5601 12.681 12.8603C12.3306 12.3644 12.3028 12.3551 11.8613 12.8557C11.9305 12.9417 12.0023 13.0272 12.0745 13.1131L12.0745 13.1131L12.0746 13.1131L12.0746 13.1131L12.0746 13.1131L12.0746 13.1132L12.0746 13.1132L12.0746 13.1132C12.2311 13.2993 12.3893 13.4876 12.5266 13.6889C12.8466 14.1565 13.163 14.6266 13.4795 15.0966L13.4796 15.0968C14.1125 16.0369 14.7453 16.9771 15.407 17.8981C15.62 18.1938 15.5552 18.3016 15.3654 18.5049C15.1998 18.6814 15.0387 18.8623 14.8775 19.0432L14.8774 19.0433L14.8774 19.0433C14.6448 19.3044 14.4121 19.5656 14.166 19.814C14.0795 19.8987 13.8217 19.9434 13.7307 19.8802C13.0518 19.4113 12.3842 18.9275 11.7188 18.4454L11.7187 18.4453L11.7182 18.4449C11.4988 18.2859 11.2795 18.127 11.0602 17.9689C10.5909 18.4032 10.6295 18.5388 11.1543 18.8791C11.7856 19.29 12.3954 19.7317 13.0047 20.1729L13.0047 20.173L13.0047 20.173L13.0048 20.173L13.2598 20.3577C13.4729 20.5101 13.6041 20.6534 13.3756 20.9629C13.2316 21.1587 13.1349 21.3879 13.038 21.6178C12.9572 21.8094 12.8762 22.0014 12.7674 22.175C12.7148 22.2591 12.6801 22.3663 12.6449 22.4749C12.5448 22.7837 12.441 23.1037 11.9123 22.9374C11.6874 22.867 11.463 22.7958 11.2387 22.7247L11.2386 22.7246L11.2385 22.7246L11.2384 22.7246L11.2383 22.7245L11.2382 22.7245L11.2381 22.7245L11.238 22.7245C10.8682 22.6071 10.4986 22.4898 10.1278 22.3768C9.79478 22.2754 9.46088 22.1786 9.12702 22.0819L9.12674 22.0818L9.12663 22.0818L9.12653 22.0817L9.12643 22.0817L9.12633 22.0817L9.12622 22.0817L9.12612 22.0816L9.12602 22.0816C8.82115 21.9933 8.51632 21.9049 8.2122 21.8131C7.96803 21.7396 7.72482 21.6629 7.48162 21.5863C7.10829 21.4687 6.735 21.3511 6.3583 21.2448C6.16226 21.1893 5.91374 21.14 5.74857 21.2155C5.67568 21.2492 5.658 21.4006 5.64148 21.5421C5.63456 21.6014 5.62784 21.6589 5.61736 21.7053C7.83401 22.3798 9.96421 23.0282 12.116 23.6843C12.0033 24.61 11.8984 25.477 11.7888 26.3903H8.20294V27.0757H11.7425C11.7922 27.2942 11.8412 27.5072 11.8894 27.7162L11.8898 27.7181L11.8899 27.7183L11.8899 27.7186L11.89 27.7189C12.0256 28.3075 12.1539 28.8647 12.2688 29.4244C12.2905 29.5276 12.2225 29.7324 12.15 29.7571C11.4152 30.0158 10.6758 30.2545 9.93179 30.4809C9.65777 30.5643 9.38067 30.6395 9.10356 30.7147L9.10351 30.7147L9.10347 30.7148L9.10344 30.7148L9.1034 30.7148L9.10337 30.7148L9.10333 30.7148L9.1033 30.7148C8.79197 30.7993 8.48063 30.8838 8.17361 30.9799C7.66962 31.1367 7.16991 31.3063 6.66094 31.4791C6.42008 31.5608 6.17715 31.6432 5.93072 31.7254C5.80414 32.2013 5.94461 32.4015 6.40616 32.289C6.59332 32.2431 6.77533 32.1765 6.95742 32.1099C7.07418 32.0672 7.19097 32.0245 7.30918 31.9872C7.8168 31.8247 8.32497 31.6644 8.83335 31.504L8.83435 31.5037L8.83505 31.5034C9.18873 31.3918 9.54251 31.2802 9.89629 31.1678C10.085 31.1081 10.2745 31.05 10.464 30.9919L10.4642 30.9919L10.4644 30.9918C10.9244 30.8509 11.3848 30.7098 11.8351 30.5441C12.3383 30.3577 12.5992 30.4732 12.8076 30.9568C12.9851 31.368 13.2135 31.7654 13.479 32.1273C13.7708 32.5278 13.7198 32.7526 13.2907 33.0175C12.5513 33.4734 11.8443 33.9801 11.1513 34.4991C11.0704 34.5599 11.0517 34.699 11.0329 34.8385C11.0241 34.9041 11.0153 34.9698 11 35.0274C11.0604 35.0269 11.1257 35.0336 11.191 35.0404C11.3326 35.0549 11.4741 35.0695 11.5649 35.0105C12.3321 34.5037 13.0792 33.9678 13.8217 33.4272C14.0471 33.2639 14.2184 33.2716 14.4098 33.4703L14.5487 33.615L14.5488 33.6151C14.9313 34.0138 15.3138 34.4126 15.7173 34.7918C15.9566 35.0166 15.9211 35.2091 15.7497 35.4294C15.6561 35.5495 15.5607 35.6684 15.4654 35.7873C15.2746 36.0252 15.0839 36.2631 14.9069 36.5105C14.587 36.9553 14.2707 37.4021 13.9545 37.8488L13.9538 37.8498L13.9536 37.8501L13.9534 37.8504L13.9532 37.8506L13.9525 37.8516L13.9523 37.8519L13.9518 37.8526C13.4192 38.6051 12.8869 39.357 12.3383 40.0975C12.079 40.4471 11.9509 40.6828 12.5714 40.8999C13.1536 40.1039 13.7414 39.3008 14.3311 38.4951L14.3649 38.4489L14.3771 38.4322L14.3808 38.4271L14.3869 38.4188L14.3935 38.4098L14.3942 38.4089C15.1094 37.4317 15.8273 36.4509 16.5416 35.474C16.7234 35.5682 16.896 35.6622 17.0636 35.7534L17.0636 35.7534C17.4168 35.9457 17.7474 36.1256 18.0929 36.2687L18.2746 36.3442L18.3004 36.355L18.3011 36.3552L18.3017 36.3555C18.9595 36.6295 19.6264 36.9072 20.3173 37.0465C20.7866 37.1404 20.8962 37.2775 20.8931 37.7057C20.8815 39.3493 20.8829 40.9921 20.8844 42.6353C20.8849 43.1832 20.8854 43.731 20.8854 44.279V44.8442H14.4793C14.2771 45.4387 14.5611 45.5003 14.998 45.5003C18.9572 45.4943 22.9174 45.4948 26.8778 45.4954C28.0097 45.4955 29.1417 45.4957 30.2737 45.4957C30.5073 45.4957 30.7408 45.496 30.9742 45.4963H30.9744H30.9746H30.9748H30.9749H30.9751H30.9753H30.9755C31.4417 45.497 31.9078 45.4977 32.3745 45.4957C32.799 45.4926 32.9627 45.3108 32.7913 44.8519H32.1754C31.64 44.8519 31.1044 44.8512 30.5689 44.8504H30.5687H30.5686H30.5684H30.5683H30.5681H30.568H30.5678C29.0362 44.8484 27.5043 44.8463 25.9731 44.8611C25.5733 44.8657 25.4344 44.7502 25.436 44.3544C25.4483 42.0796 25.4498 39.8033 25.436 37.5286C25.4344 37.1019 25.6644 36.9618 26.0256 36.8648C26.4023 36.7647 26.7804 36.6399 27.1355 36.4782C27.5885 36.2729 28.0334 36.0523 28.5003 35.8207L28.5008 35.8205C28.7098 35.7168 28.9232 35.6109 29.1437 35.5033C29.7729 36.3624 30.4071 37.2279 31.0409 38.093L31.0427 38.0954C31.7332 39.0378 32.4233 39.9796 33.1062 40.9122C33.6712 40.692 33.6588 40.4471 33.3547 40.1314C33.2731 40.0462 33.211 39.9433 33.1486 39.8399C33.1072 39.7713 33.0657 39.7025 33.0182 39.6385C32.3742 38.7607 31.7291 37.8845 31.0511 36.9636L31.0502 36.9623L31.0499 36.962C30.5696 36.3096 30.0728 35.6348 29.5482 34.9211C29.6995 34.8001 29.8533 34.6797 30.0078 34.5587C30.378 34.2687 30.7526 33.9753 31.1088 33.6613C31.4098 33.3979 31.6305 33.3533 31.9763 33.6089C32.5379 34.0242 33.1184 34.4137 33.6969 34.8019L33.6973 34.8021C33.9296 34.958 34.1617 35.1137 34.3921 35.2707C34.8166 34.8318 34.8274 34.7579 34.5047 34.5345C34.3384 34.4195 34.1725 34.3038 34.0066 34.188C33.4197 33.7786 32.8329 33.3692 32.2264 32.9898C31.9269 32.8034 31.9145 32.6679 32.0797 32.3938C32.1188 32.3285 32.1584 32.2633 32.1979 32.1979C32.4443 31.7912 32.693 31.3806 32.8592 30.9414C33.0229 30.504 33.3069 30.4055 33.6758 30.504C34.4009 30.7006 35.1154 30.9313 35.8304 31.1622L35.8304 31.1623L35.8305 31.1623L35.8305 31.1623L35.8306 31.1623L35.8306 31.1623L35.8306 31.1623L35.8307 31.1623L36.0051 31.2187C36.4469 31.3618 36.8866 31.5109 37.3262 31.6599C37.7283 31.7962 38.1302 31.9325 38.5336 32.0642L38.54 32.0663L38.54 32.0663C38.839 32.1642 39.1455 32.2646 39.4536 32.289C39.5678 32.2983 39.7701 32.1042 39.7978 31.9733C39.8179 31.884 39.6311 31.6915 39.4984 31.6391C39.2721 31.5518 39.0382 31.4868 38.8039 31.4216L38.8038 31.4216C38.6578 31.3809 38.5115 31.3403 38.3669 31.2941C38.1169 31.2149 37.8678 31.1318 37.6185 31.0486L37.6182 31.0485L37.6181 31.0485L37.618 31.0485L37.6179 31.0484L37.6178 31.0484L37.6177 31.0484L37.6175 31.0483L37.6174 31.0483C37.2851 30.9374 36.9523 30.8263 36.6164 30.7243C36.2674 30.6185 35.9166 30.5186 35.5658 30.4188C35.0587 30.2744 34.5519 30.1301 34.0509 29.9681C34.025 29.9597 33.9985 29.9514 33.9717 29.9429C33.5887 29.8227 33.1408 29.6821 33.5678 29.0964C33.5928 29.0622 33.5883 29.0092 33.5838 28.9546C33.5807 28.9182 33.5776 28.8811 33.5832 28.8484C33.6655 28.3448 33.7525 27.8413 33.8439 27.3113L33.8888 27.0511H37.4639V26.3749H33.878L33.7714 25.4431C33.7037 24.8508 33.6375 24.2718 33.5693 23.6828C34.4669 23.41 35.3587 23.1387 36.2471 22.8685L36.2479 22.8683L36.2487 22.8681L36.2495 22.8678C37.5068 22.4854 38.7573 22.1051 40.0078 21.7253C40.0525 21.1477 39.8395 21.0199 39.3039 21.2247C38.8658 21.3924 38.4154 21.5277 37.9653 21.6629L37.9653 21.6629C37.7953 21.7139 37.6254 21.7649 37.4562 21.8177C36.7909 22.0256 36.1256 22.232 35.4587 22.4322C35.3556 22.4633 35.2525 22.4947 35.1494 22.526C34.6704 22.6717 34.1906 22.8175 33.7067 22.9405C33.3856 23.0221 33.2019 22.8989 33.0831 22.5385C32.9009 21.9917 32.6601 21.4434 32.3313 20.9706C32.1168 20.6595 32.2032 20.524 32.4224 20.3638C32.534 20.2825 32.6455 20.201 32.757 20.1194C33.3361 19.6959 33.9152 19.2722 34.5171 18.8822C35.0466 18.5403 35.0882 18.4063 34.6082 17.9674L34.1745 18.2858L34.1742 18.286C33.4259 18.8357 32.6753 19.387 31.9161 19.9264C31.8435 19.9772 31.6336 19.948 31.5672 19.8802C31.0949 19.3935 30.6333 18.8961 30.198 18.3801C30.1286 18.2985 30.1471 18.0629 30.2181 17.9612C31.2135 16.518 32.2209 15.0814 33.2256 13.6485L33.2258 13.6482L33.8009 12.828C33.3856 12.4137 33.2961 12.389 33.0954 12.6724C32.6211 13.3422 32.1521 14.0155 31.683 14.6891L31.6829 14.6891L31.6829 14.6892L31.6829 14.6892L31.6829 14.6892L31.6829 14.6893L31.6828 14.6893L31.6827 14.6895L31.6823 14.6901L31.6818 14.6908L31.6814 14.6914L31.6809 14.692L31.6805 14.6926L31.6801 14.6932L31.68 14.6934C31.3928 15.1057 31.1056 15.5181 30.817 15.9298C30.6633 16.1497 30.507 16.3681 30.3506 16.5865L30.3506 16.5865C30.127 16.8988 29.9033 17.2112 29.6871 17.5284C29.5266 17.7641 29.4031 17.7918 29.1653 17.6008C28.9401 17.4213 28.681 17.2796 28.424 17.1391C28.3657 17.1072 28.3076 17.0754 28.25 17.0433C27.9323 16.8661 27.6098 16.6944 27.2956 16.5271L27.2955 16.527C27.1701 16.4602 27.046 16.3941 26.924 16.3287C26.9865 16.1375 27.0472 15.9525 27.1065 15.7719L27.109 15.7643L27.1091 15.764L27.1092 15.7637L27.1093 15.7634L27.1093 15.7634C27.2715 15.2692 27.4229 14.8083 27.5692 14.3465C27.5868 14.2909 27.6049 14.2351 27.6231 14.1793C27.7024 13.9356 27.7823 13.69 27.8162 13.4394C27.8312 13.3298 27.779 13.2114 27.7271 13.0933C27.7038 13.0404 27.6806 12.9877 27.6634 12.9358C27.6112 12.9695 27.5502 12.9998 27.4892 13.0301C27.3555 13.0965 27.2221 13.1628 27.1818 13.2654C27.0086 13.7041 26.8745 14.1585 26.7406 14.6122C26.7062 14.7286 26.6719 14.845 26.6369 14.961C26.6035 15.0719 26.5796 15.1883 26.5558 15.3044L26.5558 15.3045L26.5558 15.3045L26.5558 15.3045L26.5558 15.3045L26.5558 15.3045L26.5558 15.3046L26.5558 15.3046C26.5091 15.532 26.4626 15.7586 26.3451 15.9421C26.1488 16.2481 25.9263 16.1319 25.703 16.0154C25.6015 15.9624 25.4998 15.9094 25.4005 15.8959C25.3842 15.8936 25.3671 15.8928 25.3498 15.892H25.3498C25.3327 15.8913 25.3154 15.8905 25.2986 15.8882C24.9725 15.8358 24.6465 15.7829 24.3134 15.7289L24.3119 15.7286C24.0195 15.6812 23.7217 15.6329 23.4138 15.5833V14.9965C23.4138 14.5246 23.4134 14.0528 23.4129 13.581C23.4117 12.2832 23.4105 10.9854 23.4184 9.68763C23.42 9.23704 23.2564 9.02742 22.7331 9.12252V9.12086L22.7254 9.12394ZM29.8893 33.9093C28.6455 35.0425 27.2413 35.9263 25.4931 36.25C25.493 35.9495 25.4804 35.6551 25.468 35.3666C25.4402 34.7191 25.4137 34.1015 25.5332 33.5119C25.6907 32.728 26.3266 32.1196 27.137 31.867C28.3858 31.4759 29.4787 30.8983 29.9649 29.6308C30.2397 28.9146 30.4605 28.1446 30.5083 27.3883C30.5856 26.1726 30.5592 24.9494 30.5329 23.7287V23.7287V23.7286V23.7286V23.7286V23.7285V23.7285V23.7284L30.5329 23.7265L30.5328 23.7247L30.5328 23.7232C30.5297 23.5803 30.5266 23.4375 30.5237 23.2947C30.5098 22.6309 30.3647 21.9871 29.9711 21.4188C29.2379 20.3592 27.5168 20.4578 26.8731 21.559C26.569 22.0795 26.4007 22.6309 26.4131 23.25C26.4308 24.1807 26.4263 25.1113 26.4217 26.0425V26.0426V26.0427V26.0428V26.043V26.0431V26.0432V26.0433C26.4199 26.4094 26.4181 26.7756 26.4177 27.1419C26.4177 27.8288 26.2433 27.9905 25.4668 27.969C25.4638 27.9117 25.4601 27.8538 25.4564 27.7954L25.4564 27.7954C25.447 27.6468 25.4375 27.4956 25.4375 27.3452C25.437 26.8097 25.4381 26.2742 25.4393 25.7386C25.4418 24.5215 25.4443 23.3044 25.4282 22.0872C25.419 21.4188 25.4035 20.7319 25.2353 20.0912C25.0639 19.432 24.6225 18.8868 23.9232 18.645C22.6343 18.1984 21.5553 18.7313 21.0706 20.0589C20.9656 20.3453 20.89 20.6611 20.89 20.9629C20.8803 23.1738 20.8811 25.3857 20.8818 27.597C20.8821 28.2 20.8823 28.803 20.8823 29.4059V29.948C20.1815 30.1051 19.7492 29.7817 19.7462 29.1102C19.7404 27.8038 19.7376 26.4979 19.7348 25.1919C19.7332 24.4087 19.7315 23.6254 19.7292 22.8419C19.7261 21.9116 18.6378 20.6318 17.3597 20.9306C16.5771 21.1139 15.8007 21.9794 15.7898 22.8311C15.7559 25.3246 15.7266 27.8196 15.8145 30.3115C15.8377 30.9753 16.1665 31.713 16.5725 32.2613C17.2069 33.1176 18.0868 33.7121 19.209 33.9416C19.2802 33.9562 19.3542 33.9694 19.4296 33.9829C19.9523 34.0766 20.5408 34.1821 20.7202 34.8133C20.8152 35.1476 20.8501 35.498 20.8881 35.8784C20.9063 36.0607 20.9252 36.2498 20.9517 36.4474C19.2043 36.1871 17.7888 35.5095 16.5416 34.5392C14.626 33.0499 13.3123 31.1201 12.789 28.756C12.096 25.6234 12.7458 22.7433 14.7711 20.219C16.5848 17.9597 18.9774 16.6275 21.8872 16.3626C25.067 16.073 27.8363 17.1003 30.1008 19.3104C32.4564 21.6098 33.418 24.4652 33.0784 27.6856C32.8207 30.1252 31.7278 32.2321 29.8893 33.9093ZM21.3454 44.858H22.2391C22.9353 44.8565 22.9368 44.8565 22.9368 44.1573V18.9577C22.8184 19.0093 22.71 19.0502 22.611 19.0875C22.4208 19.1592 22.2652 19.2178 22.1403 19.315C21.5846 19.7462 21.3407 20.3222 21.3423 21.0307C21.3483 27.0311 21.3477 33.0315 21.3472 39.0319C21.347 40.746 21.3469 42.4601 21.3469 44.1742V44.8565L21.3454 44.858ZM24.8123 44.8365C24.8186 44.7272 24.8261 44.6212 24.8334 44.5175V44.5175V44.5175V44.5174V44.5174V44.5174V44.5173L24.8334 44.5173C24.8495 44.2893 24.8648 44.0724 24.8648 43.8554C24.8679 36.4921 24.8694 29.1272 24.8648 21.7623C24.8648 21.2756 24.8324 20.7873 24.7892 20.3007C24.729 19.6276 24.093 19.067 23.4586 19.1178V44.8365H24.8123ZM17.3736 21.3988C16.5416 21.8731 16.2251 22.4938 16.2375 23.3578C16.2617 24.9162 16.2569 26.4753 16.2522 28.0342V28.0343V28.0345V28.0346V28.0348V28.035V28.0351V28.0353C16.2502 28.6668 16.2483 29.2982 16.2483 29.9296C16.2483 31.0123 16.7361 31.8516 17.5187 32.5863C18.1036 33.1336 18.8223 33.351 19.5458 33.5698L19.5463 33.57C19.6227 33.5931 19.6991 33.6162 19.7755 33.6397C20.0084 33.7123 20.2478 33.7648 20.4962 33.8192L20.4966 33.8193C20.6118 33.8445 20.729 33.8702 20.8483 33.8985V32.4292C20.6551 32.3828 20.4627 32.3455 20.2733 32.3087L20.2733 32.3087L20.2733 32.3087L20.2733 32.3087L20.2733 32.3086L20.2733 32.3086L20.2732 32.3086C19.8649 32.2293 19.4707 32.1527 19.1133 31.9949C17.9046 31.4635 17.4662 30.3947 17.4431 29.1811C17.4123 27.56 17.4136 25.9383 17.4149 24.3163V24.3163V24.3163V24.3163V24.3162V24.3162V24.3162V24.3161C17.4155 23.5788 17.4162 22.8415 17.4137 22.1042C17.4137 21.9672 17.404 21.8289 17.3929 21.672C17.3869 21.5873 17.3806 21.4971 17.3751 21.3988H17.3736ZM28.7613 21.4256C28.7668 21.3418 28.7727 21.2507 28.7778 21.1483C29.4793 21.444 29.8847 21.8336 29.9078 22.5123C29.9231 22.9786 29.9419 23.4448 29.9607 23.911L29.9608 23.9111L29.9608 23.9113L29.9608 23.9115L29.9608 23.9117L29.9608 23.9118L29.9608 23.912L29.9608 23.9122V23.9122V23.9122V23.9123V23.9123V23.9124V23.9124V23.9124C30.0103 25.1392 30.0598 26.3654 30.0452 27.5916C30.0344 28.5203 29.7458 29.429 29.1376 30.176C28.6343 30.7936 27.9212 31.1386 27.1818 31.3958C26.5458 31.616 25.9855 31.9194 25.4745 32.46V30.3223C26.3776 30.2068 27.2127 30.0389 27.8687 29.4105C28.4522 28.8515 28.747 28.1846 28.7439 27.3776C28.7382 25.9868 28.7402 24.5969 28.7422 23.2066C28.7429 22.7432 28.7436 22.2797 28.7439 21.8162C28.7439 21.6937 28.7519 21.5706 28.7613 21.426L28.7613 21.4256ZM18.0837 21.3849C18.0632 21.4578 18.0379 21.5287 18.0132 21.5984C17.9615 21.7437 17.9118 21.8835 17.9108 22.0241C17.9031 24.4298 17.9031 26.837 17.9278 29.2442C17.9324 29.6385 17.9911 30.0574 18.1392 30.4178C18.5159 31.3403 19.8187 32.0411 20.8792 31.7731C20.8792 31.6871 20.8821 31.5995 20.885 31.5111C20.8923 31.2891 20.8997 31.062 20.8622 30.8429C20.8406 30.7135 20.6554 30.5364 20.5164 30.5102C19.6844 30.3469 19.2676 29.8818 19.2661 29.0486C19.2652 28.5283 19.2617 28.0078 19.2582 27.4874V27.4873V27.4872V27.4871V27.4871V27.487V27.4869V27.4868V27.4868V27.4868V27.4868V27.4868V27.4867V27.4867V27.4867C19.2494 26.1726 19.2406 24.8584 19.2738 23.5457C19.297 22.6232 19.1025 21.8778 18.0821 21.3834L18.0837 21.3849ZM28.27 21.1924C28.2175 21.1924 28.1776 21.1908 28.1458 21.1896H28.1457C28.0944 21.1875 28.064 21.1863 28.0354 21.1939C27.9721 21.2124 27.9119 21.2432 27.8548 21.2756C27.154 21.6683 26.9225 22.3336 26.9039 23.0529C26.8746 24.1392 26.8792 25.2263 26.8837 26.313C26.8852 26.6561 26.8866 26.9992 26.887 27.3421C26.887 27.7457 26.7372 28.0506 26.3513 28.2154C26.1717 28.2926 25.9893 28.3651 25.7936 28.4428L25.7934 28.4429L25.7926 28.4432L25.791 28.4438C25.6948 28.482 25.5954 28.5215 25.4915 28.5635V29.9003C25.6214 29.8661 25.7444 29.8352 25.8623 29.8055L25.8623 29.8055C26.127 29.7389 26.366 29.6787 26.5998 29.6031C27.6958 29.2488 28.2685 28.4618 28.27 27.3344V23.1961V21.1924ZM19.0112 47.4083L19.0155 47.3183L19.0253 47.1143L19.0237 47.1159L18.0683 47.1157H18.068H18.0676H18.0672H18.0668H18.0664H18.066C16.1732 47.1154 14.3231 47.115 12.4741 47.1282C12.3507 47.1282 12.1762 47.2699 12.1222 47.39C12.0913 47.4562 12.2395 47.6518 12.3507 47.715C12.4661 47.7799 12.6269 47.7798 12.7719 47.7797L12.7906 47.7797C14.6815 47.7812 16.5725 47.7812 18.4619 47.7797C18.5704 47.7797 18.6783 47.7731 18.7957 47.766C18.8587 47.7622 18.9244 47.7583 18.9944 47.755C19.0005 47.6361 19.0057 47.5266 19.0112 47.4083ZM20.3945 49.4014C20.6462 49.4014 20.8979 49.4007 21.1496 49.4C21.8688 49.3979 22.5881 49.3958 23.3073 49.4107C23.3516 49.4117 23.4049 49.4029 23.4603 49.3937C23.644 49.3632 23.8508 49.3289 23.8306 49.6401C23.826 49.7264 23.474 49.8527 23.2811 49.8542C21.3562 49.8712 19.4313 49.8681 17.5064 49.8558C17.4647 49.8558 17.416 49.8629 17.3655 49.8704C17.1784 49.898 16.9651 49.9295 16.9784 49.6155C16.9815 49.537 17.3041 49.4137 17.4817 49.4107C18.2183 49.3955 18.9558 49.3971 19.6936 49.3988H19.6937H19.6937H19.6938H19.6938H19.6939C19.9269 49.3994 20.1599 49.3999 20.3929 49.3999L20.3945 49.4014ZM25.4792 47.1098L25.4785 47.1099C25.345 47.1113 25.2115 47.1128 25.0778 47.1128H25.0763C24.9359 47.1128 24.7955 47.1115 24.655 47.1102C24.2686 47.1065 23.8821 47.1029 23.4972 47.1267C23.4087 47.1309 23.3246 47.2159 23.2409 47.3006C23.2034 47.3386 23.166 47.3764 23.1282 47.407C23.1669 47.4465 23.2051 47.4963 23.2433 47.546C23.3254 47.653 23.4072 47.7596 23.4925 47.7627C24.5113 47.7904 25.5317 47.7904 26.5505 47.7627C26.6357 47.7596 26.7182 47.6547 26.8006 47.5497C26.8391 47.5007 26.8775 47.4518 26.9163 47.4131C26.8783 47.3815 26.8408 47.3422 26.8035 47.3029C26.7225 47.2179 26.6417 47.133 26.5551 47.1267C26.1973 47.102 25.8388 47.1059 25.4794 47.1098H25.4793H25.4793H25.4792H25.4792ZM7.9575 45.0767L7.95903 45.0759L7.95441 45.2754C8.02209 45.299 8.08977 45.3286 8.15749 45.3581L8.15755 45.3581L8.1576 45.3582L8.15765 45.3582C8.30613 45.423 8.45484 45.4879 8.60428 45.491C9.6262 45.5115 10.6467 45.5056 11.6685 45.4997L11.8305 45.4987C12.3615 45.4957 12.4016 45.431 12.2488 44.858C11.9638 44.858 11.6782 44.8577 11.3923 44.8574H11.3918C10.3893 44.8564 9.38181 44.8553 8.37428 44.8673C8.27879 44.8694 8.18472 44.932 8.09063 44.9946C8.04682 45.0237 8.003 45.0529 7.95903 45.0759L7.95904 45.0752L7.9575 45.0767ZM32.5397 47.6257H34.4322V47.6272C34.5758 47.139 34.3303 47.1143 34.0432 47.1143C33.4401 47.1154 32.8377 47.115 32.2355 47.1147H32.2353C31.9344 47.1145 31.6335 47.1143 31.3326 47.1143H29.948C29.809 47.524 29.9449 47.638 30.2907 47.6303C30.8219 47.6194 31.3524 47.6216 31.8832 47.6238H31.8833H31.8835C32.1022 47.6247 32.3209 47.6257 32.5397 47.6257ZM38.2002 45.2708C38.1397 45.295 38.0795 45.3255 38.0194 45.3559C37.8923 45.4202 37.7656 45.4843 37.6368 45.4895C37.1722 45.5078 36.7061 45.505 36.2402 45.5022H36.2399C36.0402 45.501 35.8404 45.4998 35.6409 45.5003C35.397 45.5003 35.15 45.4525 35.221 45.1553C35.2503 45.0336 35.4834 44.8842 35.6301 44.8781C36.2938 44.8488 36.9607 44.8503 37.6244 44.8734C37.7562 44.8787 37.8851 44.9342 38.0146 44.99C38.0747 45.0159 38.1349 45.0419 38.1956 45.0629C38.1956 45.1322 38.1971 45.2015 38.2002 45.2708ZM28.2031 49.3998C28.0664 49.4006 27.9298 49.4014 27.7931 49.4014V49.403C27.6499 49.403 27.5068 49.4018 27.3637 49.4007C26.9775 49.3977 26.5914 49.3946 26.2062 49.4137C26.1185 49.4169 26.0338 49.4828 25.9489 49.5488C25.9097 49.5792 25.8706 49.6097 25.8311 49.634C25.8672 49.6582 25.9032 49.689 25.9391 49.7198C26.0152 49.785 26.0911 49.8501 26.1676 49.8511C27.2435 49.8681 28.3194 49.8665 29.3938 49.8511C29.4589 49.8501 29.5225 49.7886 29.5861 49.727C29.6161 49.698 29.6461 49.669 29.6763 49.6463C29.645 49.6204 29.614 49.5879 29.583 49.5554C29.5162 49.4853 29.4495 49.4154 29.3799 49.4122C28.9883 49.3951 28.5958 49.3974 28.2031 49.3998Z" fill="#FFFCF1"/>
<path d="M7.40501 67.4131C7.38186 66.7247 7.54548 66.0994 7.86965 65.5234C8.2185 64.9012 8.7279 64.4422 9.37931 64.1465C9.86246 63.9278 10.3688 63.8277 10.8936 63.8477C11.8584 63.8847 12.6765 64.2543 13.3217 64.9859C13.6243 65.3278 13.8404 65.7251 13.9824 66.1564C14.058 66.3843 14.0997 66.6261 14.1275 66.8648C14.1584 67.1251 14.18 67.39 14.1645 67.6503C14.1028 68.6514 13.7555 69.5246 12.9667 70.1777C12.6873 70.4102 12.3678 70.5765 12.0235 70.6982C11.4339 70.9046 10.8288 70.9508 10.219 70.8615C9.35152 70.7336 8.61522 70.3517 8.07803 69.6309C7.82025 69.2844 7.64736 68.8978 7.53622 68.482C7.44206 68.1262 7.38958 67.7643 7.40501 67.4147V67.4131ZM8.34354 67.3931C8.37904 67.6765 8.41146 67.9583 8.45314 68.2386C8.47938 68.4065 8.50408 68.579 8.55965 68.7392C8.64918 68.9933 8.74951 69.2443 8.86991 69.4846C9.04743 69.8373 9.2975 70.1392 9.62629 70.3609C10.1249 70.6982 10.6775 70.7768 11.261 70.6536C11.6469 70.5719 11.9757 70.3825 12.2505 70.1022C12.6178 69.7264 12.8556 69.2751 12.9898 68.7669C13.0516 68.5282 13.1226 68.291 13.1581 68.0492C13.2615 67.3223 13.189 66.6107 12.9482 65.9161C12.8062 65.5064 12.6194 65.1229 12.3369 64.7903C11.9247 64.3067 11.4061 64.0356 10.7717 64.0295C10.5571 64.0279 10.3348 64.0895 10.1264 64.1573C9.77448 64.2743 9.47965 64.4946 9.24347 64.778C8.83287 65.2708 8.60132 65.853 8.46394 66.4721C8.39757 66.7724 8.38213 67.0835 8.34199 67.3946L8.34354 67.3931Z" fill="#FFFCF1"/>
<path d="M25.3029 70.5193V68.7959C25.3029 68.7959 25.3168 68.7912 25.323 68.7882C25.3739 68.9129 25.431 69.0361 25.4727 69.1639C25.661 69.7338 26.0654 70.1003 26.5779 70.3668C26.9175 70.5424 27.2741 70.6671 27.6585 70.6994C27.8113 70.7118 27.9641 70.738 28.1169 70.7349C28.5661 70.7226 28.9335 70.5393 29.2268 70.1897C29.5695 69.7831 29.6312 69.3041 29.5818 68.8066C29.5494 68.4786 29.3194 68.266 29.04 68.1136C28.7961 67.9796 28.5414 67.8779 28.2667 67.8271C28.0367 67.784 27.8082 67.7393 27.5782 67.6962C27.0472 67.5945 26.5224 67.4713 26.0716 67.1479C25.5699 66.7875 25.3754 66.2839 25.4032 65.6802C25.4233 65.2536 25.553 64.8654 25.837 64.542C26.084 64.2602 26.3927 64.0754 26.7524 63.9629C27.1846 63.8289 27.6199 63.8089 28.0583 63.889C28.4488 63.9598 28.7992 64.1385 29.1342 64.3495C29.3256 64.4696 29.5401 64.5004 29.7593 64.4681C29.8334 64.4573 29.9013 64.3988 29.9693 64.3587C30.0171 64.331 30.0603 64.2956 30.1205 64.2525V65.9959C30.1205 65.9959 30.1097 65.999 30.1051 66.0005C30.0403 65.8326 29.9708 65.6678 29.9122 65.4984C29.8072 65.1966 29.605 64.9686 29.375 64.7592C29.0554 64.4681 28.6865 64.2617 28.2805 64.1246C27.9903 64.0261 27.6862 63.9737 27.3837 64.0245C27.0071 64.0877 26.7415 64.3202 26.5687 64.6621C26.385 65.0256 26.3078 65.4122 26.3433 65.8157C26.3618 66.0252 26.4699 66.1961 26.6304 66.3316C26.8419 66.5103 27.0842 66.6289 27.3544 66.6874C27.6646 66.7536 27.9764 66.8106 28.2867 66.8769C28.7591 66.98 29.2206 67.1094 29.6358 67.3712C29.9909 67.5946 30.2734 67.8872 30.3984 68.2922C30.4848 68.5695 30.5234 68.859 30.4725 69.1609C30.4324 69.4027 30.3922 69.6383 30.2826 69.857C30.0773 70.2636 29.7454 70.53 29.3302 70.6902C28.8332 70.8827 28.316 70.9181 27.785 70.8843C27.2386 70.8488 26.7416 70.684 26.2754 70.3976C26.0577 70.2636 25.8077 70.2235 25.5591 70.3252C25.4958 70.3514 25.4465 70.4068 25.3909 70.4499C25.3677 70.4684 25.3446 70.4854 25.2998 70.5208L25.3029 70.5193Z" fill="#FFFCF1"/>
<path d="M38.0891 64.2479V65.9821C38.0891 65.9821 38.0783 65.9821 38.0737 65.9821C37.9996 65.7849 37.9301 65.5862 37.8483 65.3922C37.7217 65.0888 37.4886 64.8716 37.2447 64.6668C36.919 64.3926 36.5501 64.2094 36.1426 64.0923C35.8833 64.0184 35.6209 63.9814 35.36 64.023C35.0173 64.0785 34.758 64.2833 34.5866 64.5836C34.4184 64.8762 34.3396 65.2012 34.3088 65.5354C34.2686 65.9774 34.4708 66.2885 34.8475 66.498C35.1161 66.6474 35.4094 66.7229 35.7104 66.7783C36.0268 66.8368 36.3448 66.8876 36.6551 66.9693C37.1645 67.1033 37.6445 67.3035 38.0212 67.6978C38.2342 67.9211 38.3592 68.1875 38.4241 68.4909C38.4935 68.8128 38.4796 69.1316 38.4086 69.4458C38.2805 70.0126 37.9363 70.413 37.4115 70.6456C36.8913 70.8766 36.3402 70.9305 35.7798 70.8781C35.5437 70.8566 35.2998 70.8381 35.0759 70.7672C34.8228 70.6872 34.5789 70.5655 34.3458 70.4361C34.1266 70.3144 33.8997 70.2451 33.6558 70.2852C33.5632 70.3006 33.4783 70.373 33.3919 70.4253C33.3641 70.4423 33.3455 70.4762 33.3008 70.527V68.8298C33.3008 68.8298 33.3116 68.8298 33.3162 68.8282C33.3687 68.956 33.4258 69.0839 33.4706 69.2148C33.6527 69.7338 34.0247 70.0711 34.4894 70.3314C34.7919 70.5008 35.1099 70.6194 35.4449 70.6779C35.7042 70.7226 35.9759 70.7549 36.2352 70.7241C36.8434 70.6502 37.2463 70.2898 37.4701 69.72C37.5967 69.3965 37.5813 69.0592 37.5427 68.7296C37.5133 68.4755 37.3157 68.2969 37.1074 68.166C36.8449 68.0012 36.5578 67.8857 36.2506 67.8287C36.0068 67.7825 35.7613 67.7501 35.5205 67.6916C35.2041 67.6131 34.8892 67.5206 34.5774 67.4236C34.2733 67.3297 34.0139 67.1572 33.7947 66.9231C33.6095 66.7244 33.4659 66.4995 33.4335 66.2254C33.4042 65.9728 33.3672 65.7125 33.4011 65.4646C33.4876 64.8547 33.8148 64.3911 34.3659 64.1093C34.8351 63.869 35.3368 63.8012 35.8617 63.8659C36.2954 63.9198 36.686 64.08 37.0502 64.3172C37.2602 64.4542 37.4933 64.5066 37.7387 64.4681C37.8159 64.4558 37.8884 64.3957 37.9594 64.3541C38.0011 64.328 38.0351 64.2925 38.0891 64.2479Z" fill="#FFFCF1"/>
<path d="M1.29047 70.8983H0.00308725C0.0138926 70.869 0.0185235 70.8444 0.0324161 70.8274C0.129664 70.7042 0.163624 70.5579 0.17443 70.4054C0.185235 70.2499 0.189866 70.0943 0.189866 69.9388C0.189866 68.1753 0.189866 66.4119 0.186779 64.6469C0.186779 64.4236 0.191409 64.1972 0.0833557 63.9908C0.0602013 63.9446 0.0324161 63.9014 0 63.8475C0.0339597 63.8445 0.0540268 63.8398 0.0756376 63.8398C1.04195 63.8398 2.00826 63.8398 2.97456 63.8445C3.28329 63.846 3.59047 63.8799 3.88376 63.9785C4.4302 64.1602 4.81765 64.5098 4.99208 65.0796C5.09859 65.4246 5.13409 65.7773 5.10785 66.1331C5.08007 66.5043 4.98282 66.8585 4.74356 67.1557C4.54289 67.4052 4.27275 67.5485 3.97792 67.6532C3.62906 67.7764 3.26785 67.798 2.90201 67.7949C2.33859 67.7918 1.77517 67.7949 1.2102 67.7918C1.1145 67.7918 1.08671 67.818 1.08671 67.9135C1.09134 68.6543 1.08517 69.3951 1.09289 70.1359C1.09597 70.3869 1.11604 70.6395 1.2843 70.8505C1.28893 70.8582 1.28738 70.8721 1.29047 70.8998V70.8983ZM1.09906 64.017C1.09443 64.0601 1.0898 64.0893 1.0898 64.1171C1.0898 65.2552 1.0898 66.3934 1.08826 67.5315C1.08826 67.6116 1.11295 67.6393 1.19322 67.6393C1.74893 67.6363 2.30617 67.6424 2.86188 67.6347C3.12584 67.6301 3.38671 67.5931 3.61208 67.4299C4.0057 67.148 4.15852 66.7353 4.19403 66.2794C4.23725 65.7404 4.21564 65.2013 4.0196 64.6854C3.93315 64.4559 3.80503 64.2618 3.57966 64.1448C3.39134 64.0478 3.18604 64.02 2.98074 64.0185C2.38799 64.0139 1.79678 64.0185 1.20403 64.0185H1.09752L1.09906 64.017Z" fill="#FFFCF1"/>
<path d="M41.3301 63.8756C41.3856 63.8663 41.4227 63.8555 41.4597 63.8555C42.8783 63.8555 44.2969 63.8555 45.7155 63.854C45.8035 63.854 45.839 63.8802 45.8328 63.9726C45.8267 64.065 45.8313 64.1574 45.8313 64.2729C45.6322 64.0896 45.4083 64.0558 45.1737 64.0558C44.2938 64.0558 43.414 64.0542 42.5341 64.0527C42.5094 64.0527 42.4847 64.0573 42.4523 64.0604V67.1437C42.4847 67.1468 42.5156 67.1514 42.5465 67.1514C43.3584 67.1514 44.1688 67.1483 44.9808 67.1453C45.203 67.1453 45.4176 67.1129 45.5997 66.9651C45.6075 66.9589 45.6198 66.9589 45.6383 66.9543V67.5442C45.5457 67.4995 45.4593 67.4394 45.3651 67.4179C45.1999 67.3794 45.0301 67.3439 44.8619 67.3424C44.0901 67.3332 43.3183 67.3393 42.5465 67.3347C42.4631 67.3347 42.443 67.3624 42.443 67.441C42.4446 68.499 42.4446 69.5586 42.443 70.6167C42.443 70.6999 42.4677 70.7307 42.5542 70.7307C43.3985 70.7276 44.2414 70.7338 45.0857 70.7261C45.2941 70.7245 45.5056 70.686 45.7124 70.6475C45.7973 70.6321 45.873 70.569 45.9671 70.5197C45.9671 70.6275 45.9702 70.743 45.964 70.8585C45.964 70.8755 45.9254 70.8955 45.9023 70.9032C45.8761 70.9109 45.8452 70.9063 45.8159 70.9063H41.4844C41.4551 70.9063 41.4227 70.914 41.3995 70.9016C41.3826 70.8924 41.3625 70.8431 41.3702 70.8354C41.4937 70.6937 41.5122 70.5181 41.5292 70.3441C41.54 70.2409 41.5385 70.1347 41.5385 70.0299C41.5369 68.1725 41.5354 66.3151 41.5307 64.4577C41.5307 64.256 41.4906 64.0588 41.3301 63.8771V63.8756Z" fill="#FFFCF1"/>
<path d="M17.0693 63.8385C17.5 63.8385 17.9353 63.8385 18.3922 63.8385C18.2286 63.9987 18.1931 64.1851 18.1931 64.3853C18.1854 65.6667 18.1699 66.9481 18.1684 68.2294C18.1684 68.5113 18.1993 68.7962 18.2487 69.0734C18.3305 69.5324 18.4663 69.9744 18.8013 70.3256C19.0236 70.5581 19.303 70.6767 19.6179 70.6875C20.0701 70.7044 20.507 70.629 20.9083 70.4103C21.2541 70.2224 21.5057 69.9374 21.6709 69.5817C21.7758 69.3568 21.853 69.1212 21.8669 68.8701C21.8808 68.6083 21.9086 68.3465 21.9086 68.0847C21.9117 66.8849 21.9086 65.6851 21.9086 64.4854C21.9086 64.2667 21.8777 64.0588 21.7264 63.8878C21.7203 63.8801 21.7203 63.8678 21.7141 63.8431C21.9179 63.8431 22.1154 63.8431 22.3269 63.8431C22.0815 64.1466 22.1309 64.5054 22.1293 64.8489C22.1216 65.9146 22.1293 66.9804 22.1262 68.0462C22.1262 68.4404 22.0938 68.8332 21.992 69.2136C21.8716 69.6633 21.6771 70.0714 21.305 70.3733C21.0596 70.572 20.7848 70.7029 20.4792 70.7845C20.0902 70.8892 19.6981 70.8908 19.3076 70.8584C18.8229 70.8184 18.3722 70.6628 18.0109 70.3163C17.7532 70.0699 17.5787 69.7696 17.4645 69.4277C17.3194 68.9856 17.2777 68.5328 17.2793 68.0708C17.2808 66.9511 17.2824 65.8299 17.2731 64.7102C17.2716 64.4962 17.2299 64.2805 17.1913 64.0695C17.1758 63.9895 17.1141 63.9171 17.0709 63.8354L17.0693 63.8385Z" fill="#FFFCF1"/>
<path d="M7.40501 67.4131C7.38186 66.7247 7.54548 66.0994 7.86965 65.5234C8.2185 64.9012 8.7279 64.4422 9.37931 64.1465C9.86246 63.9278 10.3688 63.8277 10.8936 63.8477C11.8584 63.8847 12.6765 64.2543 13.3217 64.9859C13.6243 65.3278 13.8404 65.7251 13.9824 66.1564C14.058 66.3843 14.0997 66.6261 14.1275 66.8648C14.1584 67.1251 14.18 67.39 14.1645 67.6503C14.1028 68.6514 13.7555 69.5246 12.9667 70.1777C12.6873 70.4102 12.3678 70.5765 12.0235 70.6982C11.4339 70.9046 10.8288 70.9508 10.219 70.8615C9.35152 70.7336 8.61522 70.3517 8.07803 69.6309C7.82025 69.2844 7.64736 68.8978 7.53622 68.482C7.44206 68.1262 7.38958 67.7643 7.40501 67.4147V67.4131ZM8.34354 67.3931C8.37904 67.6765 8.41146 67.9583 8.45314 68.2386C8.47938 68.4065 8.50408 68.579 8.55965 68.7392C8.64918 68.9933 8.74951 69.2443 8.86991 69.4846C9.04743 69.8373 9.2975 70.1392 9.62629 70.3609C10.1249 70.6982 10.6775 70.7768 11.261 70.6536C11.6469 70.5719 11.9757 70.3825 12.2505 70.1022C12.6178 69.7264 12.8556 69.2751 12.9898 68.7669C13.0516 68.5282 13.1226 68.291 13.1581 68.0492C13.2615 67.3223 13.189 66.6107 12.9482 65.9161C12.8062 65.5064 12.6194 65.1229 12.3369 64.7903C11.9247 64.3067 11.4061 64.0356 10.7717 64.0295C10.5571 64.0279 10.3348 64.0895 10.1264 64.1573C9.77448 64.2743 9.47965 64.4946 9.24347 64.778C8.83287 65.2708 8.60132 65.853 8.46394 66.4721C8.39757 66.7724 8.38213 67.0835 8.34199 67.3946L8.34354 67.3931Z" fill="#FFFCF1"/>
<path d="M25.3029 70.5193V68.7959C25.3029 68.7959 25.3168 68.7912 25.323 68.7882C25.3739 68.9129 25.431 69.0361 25.4727 69.1639C25.661 69.7338 26.0654 70.1003 26.5779 70.3668C26.9175 70.5424 27.2741 70.6671 27.6585 70.6994C27.8113 70.7118 27.9641 70.738 28.1169 70.7349C28.5661 70.7226 28.9335 70.5393 29.2268 70.1897C29.5695 69.7831 29.6312 69.3041 29.5818 68.8066C29.5494 68.4786 29.3194 68.266 29.04 68.1136C28.7961 67.9796 28.5414 67.8779 28.2667 67.8271C28.0367 67.784 27.8082 67.7393 27.5782 67.6962C27.0472 67.5945 26.5224 67.4713 26.0716 67.1479C25.5699 66.7875 25.3754 66.2839 25.4032 65.6802C25.4233 65.2536 25.553 64.8654 25.837 64.542C26.084 64.2602 26.3927 64.0754 26.7524 63.9629C27.1846 63.8289 27.6199 63.8089 28.0583 63.889C28.4488 63.9598 28.7992 64.1385 29.1342 64.3495C29.3256 64.4696 29.5401 64.5004 29.7593 64.4681C29.8334 64.4573 29.9013 64.3988 29.9693 64.3587C30.0171 64.331 30.0603 64.2956 30.1205 64.2525V65.9959C30.1205 65.9959 30.1097 65.999 30.1051 66.0005C30.0403 65.8326 29.9708 65.6678 29.9122 65.4984C29.8072 65.1966 29.605 64.9686 29.375 64.7592C29.0554 64.4681 28.6865 64.2617 28.2805 64.1246C27.9903 64.0261 27.6862 63.9737 27.3837 64.0245C27.0071 64.0877 26.7415 64.3202 26.5687 64.6621C26.385 65.0256 26.3078 65.4122 26.3433 65.8157C26.3618 66.0252 26.4699 66.1961 26.6304 66.3316C26.8419 66.5103 27.0842 66.6289 27.3544 66.6874C27.6646 66.7536 27.9764 66.8106 28.2867 66.8769C28.7591 66.98 29.2206 67.1094 29.6358 67.3712C29.9909 67.5946 30.2734 67.8872 30.3984 68.2922C30.4848 68.5695 30.5234 68.859 30.4725 69.1609C30.4324 69.4027 30.3922 69.6383 30.2826 69.857C30.0773 70.2636 29.7454 70.53 29.3302 70.6902C28.8332 70.8827 28.316 70.9181 27.785 70.8843C27.2386 70.8488 26.7416 70.684 26.2754 70.3976C26.0577 70.2636 25.8077 70.2235 25.5591 70.3252C25.4958 70.3514 25.4465 70.4068 25.3909 70.4499C25.3677 70.4684 25.3446 70.4854 25.2998 70.5208L25.3029 70.5193Z" fill="#FFFCF1"/>
<path d="M38.0891 64.2479V65.9821C38.0891 65.9821 38.0783 65.9821 38.0737 65.9821C37.9996 65.7849 37.9301 65.5862 37.8483 65.3922C37.7217 65.0888 37.4886 64.8716 37.2447 64.6668C36.919 64.3926 36.5501 64.2094 36.1426 64.0923C35.8833 64.0184 35.6209 63.9814 35.36 64.023C35.0173 64.0785 34.758 64.2833 34.5866 64.5836C34.4184 64.8762 34.3396 65.2012 34.3088 65.5354C34.2686 65.9774 34.4708 66.2885 34.8475 66.498C35.1161 66.6474 35.4094 66.7229 35.7104 66.7783C36.0268 66.8368 36.3448 66.8876 36.6551 66.9693C37.1645 67.1033 37.6445 67.3035 38.0212 67.6978C38.2342 67.9211 38.3592 68.1875 38.4241 68.4909C38.4935 68.8128 38.4796 69.1316 38.4086 69.4458C38.2805 70.0126 37.9363 70.413 37.4115 70.6456C36.8913 70.8766 36.3402 70.9305 35.7798 70.8781C35.5437 70.8566 35.2998 70.8381 35.0759 70.7672C34.8228 70.6872 34.5789 70.5655 34.3458 70.4361C34.1266 70.3144 33.8997 70.2451 33.6558 70.2852C33.5632 70.3006 33.4783 70.373 33.3919 70.4253C33.3641 70.4423 33.3455 70.4762 33.3008 70.527V68.8298C33.3008 68.8298 33.3116 68.8298 33.3162 68.8282C33.3687 68.956 33.4258 69.0839 33.4706 69.2148C33.6527 69.7338 34.0247 70.0711 34.4894 70.3314C34.7919 70.5008 35.1099 70.6194 35.4449 70.6779C35.7042 70.7226 35.9759 70.7549 36.2352 70.7241C36.8434 70.6502 37.2463 70.2898 37.4701 69.72C37.5967 69.3965 37.5813 69.0592 37.5427 68.7296C37.5133 68.4755 37.3157 68.2969 37.1074 68.166C36.8449 68.0012 36.5578 67.8857 36.2506 67.8287C36.0068 67.7825 35.7613 67.7501 35.5205 67.6916C35.2041 67.6131 34.8892 67.5206 34.5774 67.4236C34.2733 67.3297 34.0139 67.1572 33.7947 66.9231C33.6095 66.7244 33.4659 66.4995 33.4335 66.2254C33.4042 65.9728 33.3672 65.7125 33.4011 65.4646C33.4876 64.8547 33.8148 64.3911 34.3659 64.1093C34.8351 63.869 35.3368 63.8012 35.8617 63.8659C36.2954 63.9198 36.686 64.08 37.0502 64.3172C37.2602 64.4542 37.4933 64.5066 37.7387 64.4681C37.8159 64.4558 37.8884 64.3957 37.9594 64.3541C38.0011 64.328 38.0351 64.2925 38.0891 64.2479Z" fill="#FFFCF1"/>
<path d="M1.29047 70.8983H0.00308725C0.0138926 70.869 0.0185235 70.8444 0.0324161 70.8274C0.129664 70.7042 0.163624 70.5579 0.17443 70.4054C0.185235 70.2499 0.189866 70.0943 0.189866 69.9388C0.189866 68.1753 0.189866 66.4119 0.186779 64.6469C0.186779 64.4236 0.191409 64.1972 0.0833557 63.9908C0.0602013 63.9446 0.0324161 63.9014 0 63.8475C0.0339597 63.8445 0.0540268 63.8398 0.0756376 63.8398C1.04195 63.8398 2.00826 63.8398 2.97456 63.8445C3.28329 63.846 3.59047 63.8799 3.88376 63.9785C4.4302 64.1602 4.81765 64.5098 4.99208 65.0796C5.09859 65.4246 5.13409 65.7773 5.10785 66.1331C5.08007 66.5043 4.98282 66.8585 4.74356 67.1557C4.54289 67.4052 4.27275 67.5485 3.97792 67.6532C3.62906 67.7764 3.26785 67.798 2.90201 67.7949C2.33859 67.7918 1.77517 67.7949 1.2102 67.7918C1.1145 67.7918 1.08671 67.818 1.08671 67.9135C1.09134 68.6543 1.08517 69.3951 1.09289 70.1359C1.09597 70.3869 1.11604 70.6395 1.2843 70.8505C1.28893 70.8582 1.28738 70.8721 1.29047 70.8998V70.8983ZM1.09906 64.017C1.09443 64.0601 1.0898 64.0893 1.0898 64.1171C1.0898 65.2552 1.0898 66.3934 1.08826 67.5315C1.08826 67.6116 1.11295 67.6393 1.19322 67.6393C1.74893 67.6363 2.30617 67.6424 2.86188 67.6347C3.12584 67.6301 3.38671 67.5931 3.61208 67.4299C4.0057 67.148 4.15852 66.7353 4.19403 66.2794C4.23725 65.7404 4.21564 65.2013 4.0196 64.6854C3.93315 64.4559 3.80503 64.2618 3.57966 64.1448C3.39134 64.0478 3.18604 64.02 2.98074 64.0185C2.38799 64.0139 1.79678 64.0185 1.20403 64.0185H1.09752L1.09906 64.017Z" fill="#FFFCF1"/>
<path d="M41.3301 63.8756C41.3856 63.8663 41.4227 63.8555 41.4597 63.8555C42.8783 63.8555 44.2969 63.8555 45.7155 63.854C45.8035 63.854 45.839 63.8802 45.8328 63.9726C45.8267 64.065 45.8313 64.1574 45.8313 64.2729C45.6322 64.0896 45.4083 64.0558 45.1737 64.0558C44.2938 64.0558 43.414 64.0542 42.5341 64.0527C42.5094 64.0527 42.4847 64.0573 42.4523 64.0604V67.1437C42.4847 67.1468 42.5156 67.1514 42.5465 67.1514C43.3584 67.1514 44.1688 67.1483 44.9808 67.1453C45.203 67.1453 45.4176 67.1129 45.5997 66.9651C45.6075 66.9589 45.6198 66.9589 45.6383 66.9543V67.5442C45.5457 67.4995 45.4593 67.4394 45.3651 67.4179C45.1999 67.3794 45.0301 67.3439 44.8619 67.3424C44.0901 67.3332 43.3183 67.3393 42.5465 67.3347C42.4631 67.3347 42.443 67.3624 42.443 67.441C42.4446 68.499 42.4446 69.5586 42.443 70.6167C42.443 70.6999 42.4677 70.7307 42.5542 70.7307C43.3985 70.7276 44.2414 70.7338 45.0857 70.7261C45.2941 70.7245 45.5056 70.686 45.7124 70.6475C45.7973 70.6321 45.873 70.569 45.9671 70.5197C45.9671 70.6275 45.9702 70.743 45.964 70.8585C45.964 70.8755 45.9254 70.8955 45.9023 70.9032C45.8761 70.9109 45.8452 70.9063 45.8159 70.9063H41.4844C41.4551 70.9063 41.4227 70.914 41.3995 70.9016C41.3826 70.8924 41.3625 70.8431 41.3702 70.8354C41.4937 70.6937 41.5122 70.5181 41.5292 70.3441C41.54 70.2409 41.5385 70.1347 41.5385 70.0299C41.5369 68.1725 41.5354 66.3151 41.5307 64.4577C41.5307 64.256 41.4906 64.0588 41.3301 63.8771V63.8756Z" fill="#FFFCF1"/>
<path d="M17.0693 63.8385C17.5 63.8385 17.9353 63.8385 18.3922 63.8385C18.2286 63.9987 18.1931 64.1851 18.1931 64.3853C18.1854 65.6667 18.1699 66.9481 18.1684 68.2294C18.1684 68.5113 18.1993 68.7962 18.2487 69.0734C18.3305 69.5324 18.4663 69.9744 18.8013 70.3256C19.0236 70.5581 19.303 70.6767 19.6179 70.6875C20.0701 70.7044 20.507 70.629 20.9083 70.4103C21.2541 70.2224 21.5057 69.9374 21.6709 69.5817C21.7758 69.3568 21.853 69.1212 21.8669 68.8701C21.8808 68.6083 21.9086 68.3465 21.9086 68.0847C21.9117 66.8849 21.9086 65.6851 21.9086 64.4854C21.9086 64.2667 21.8777 64.0588 21.7264 63.8878C21.7203 63.8801 21.7203 63.8678 21.7141 63.8431C21.9179 63.8431 22.1154 63.8431 22.3269 63.8431C22.0815 64.1466 22.1309 64.5054 22.1293 64.8489C22.1216 65.9146 22.1293 66.9804 22.1262 68.0462C22.1262 68.4404 22.0938 68.8332 21.992 69.2136C21.8716 69.6633 21.6771 70.0714 21.305 70.3733C21.0596 70.572 20.7848 70.7029 20.4792 70.7845C20.0902 70.8892 19.6981 70.8908 19.3076 70.8584C18.8229 70.8184 18.3722 70.6628 18.0109 70.3163C17.7532 70.0699 17.5787 69.7696 17.4645 69.4277C17.3194 68.9856 17.2777 68.5328 17.2793 68.0708C17.2808 66.9511 17.2824 65.8299 17.2731 64.7102C17.2716 64.4962 17.2299 64.2805 17.1913 64.0695C17.1758 63.9895 17.1141 63.9171 17.0709 63.8354L17.0693 63.8385Z" fill="#FFFCF1"/>
</g>
<defs>
<clipPath id="clip0_412_1952">
<rect width="46" height="71" fill="white"/>
</clipPath>
</defs>
</svg>
