<svg width="148" height="24" viewBox="0 0 148 24" fill="none" xmlns="http://www.w3.org/2000/svg">
<g clip-path="url(#clip0_912_6243)">
<path d="M23.824 12.1072C23.7495 9.82467 24.276 7.75148 25.3189 5.8417C26.4413 3.77872 28.0803 2.25701 30.1761 1.27659C31.7306 0.551483 33.3596 0.219567 35.0482 0.28595C38.1522 0.408503 40.7844 1.63404 42.8604 4.05957C43.8338 5.19319 44.5291 6.51063 44.986 7.94041C45.2294 8.69616 45.3635 9.49786 45.4529 10.2894C45.5522 11.1523 45.6217 12.0306 45.5721 12.8936C45.3734 16.2128 44.256 19.1081 41.7181 21.2732C40.8192 22.0443 39.7911 22.5957 38.6836 22.9991C36.7864 23.6834 34.8396 23.8366 32.8778 23.5404C30.0867 23.1166 27.7177 21.8502 25.9894 19.4604C25.16 18.3115 24.6038 17.0298 24.2462 15.6511C23.9432 14.4715 23.7744 13.2715 23.824 12.1123V12.1072ZM26.8436 12.0408C26.9578 12.9804 27.0621 13.9149 27.1962 14.8443C27.2807 15.4008 27.3601 15.9728 27.5389 16.5038C27.827 17.3464 28.1498 18.1787 28.5372 18.9753C29.1083 20.1447 29.9129 21.1455 30.9707 21.8808C32.5749 22.9991 34.3529 23.2596 36.2302 22.8511C37.4718 22.5804 38.5297 21.9523 39.4137 21.023C40.5957 19.777 41.3605 18.2808 41.7926 16.5957C41.9913 15.8042 42.2197 15.0179 42.334 14.2162C42.6667 11.8059 42.4333 9.4468 41.6585 7.14382C41.2016 5.78552 40.6007 4.51403 39.6918 3.41105C38.3658 1.80765 36.697 0.908925 34.6558 0.888499C33.9655 0.883393 33.2503 1.08766 32.5799 1.31234C31.4475 1.70042 30.4989 2.43063 29.7391 3.37021C28.418 5.00425 27.673 6.93446 27.231 8.98723C27.0174 9.98298 26.9678 11.0145 26.8387 12.0459L26.8436 12.0408Z" fill="#1B1918"/>
<path d="M81.4103 22.4068V16.6928C81.4103 16.6928 81.455 16.6775 81.4749 16.6672C81.6388 17.0809 81.8225 17.4894 81.9566 17.9132C82.5625 19.8025 83.8637 21.0179 85.5126 21.9013C86.6052 22.4834 87.7525 22.897 88.9891 23.0043C89.4808 23.0451 89.9725 23.1319 90.4642 23.1217C91.9094 23.0809 93.0914 22.4732 94.035 21.314C95.1376 19.966 95.3362 18.3779 95.1773 16.7285C95.073 15.6409 94.333 14.9362 93.4341 14.4306C92.6494 13.9864 91.8299 13.6494 90.9459 13.4809C90.2059 13.3379 89.4709 13.1898 88.7309 13.0468C87.0224 12.7098 85.3338 12.3013 83.8836 11.2289C82.2695 10.034 81.6438 8.36425 81.7331 6.36255C81.7977 4.94808 82.2149 3.66128 83.1287 2.58894C83.9233 1.65447 84.9166 1.0417 86.0738 0.668938C87.4644 0.224682 88.865 0.158294 90.2754 0.423826C91.5319 0.658719 92.6593 1.25107 93.737 1.95064C94.3529 2.34894 95.0432 2.45106 95.7484 2.34383C95.9868 2.30809 96.2054 2.11405 96.4239 1.98128C96.5778 1.88937 96.7169 1.77192 96.9106 1.62894V7.40937C96.9106 7.40937 96.8758 7.41958 96.8609 7.42469C96.6523 6.86809 96.4289 6.3217 96.2401 5.76C95.9024 4.75915 95.2518 4.00341 94.5118 3.30894C93.4838 2.34384 92.2968 1.65957 90.9906 1.2051C90.0569 0.878293 89.0785 0.704679 88.1051 0.87319C86.8933 1.08255 86.039 1.85362 85.4828 2.98724C84.8918 4.19235 84.6435 5.47404 84.7577 6.81192C84.8173 7.50638 85.165 8.0732 85.6815 8.52256C86.3619 9.1149 87.1416 9.50809 88.0107 9.70213C89.009 9.92171 90.0122 10.1106 91.0105 10.3302C92.5302 10.6723 94.0152 11.1013 95.3511 11.9694C96.4934 12.7098 97.4023 13.68 97.8046 15.023C98.0827 15.9421 98.2068 16.9021 98.0429 17.903C97.9138 18.7047 97.7847 19.486 97.4321 20.2111C96.7715 21.5591 95.7037 22.4426 94.3678 22.9736C92.7686 23.6119 91.1048 23.7294 89.3964 23.617C87.6382 23.4996 86.0391 22.9532 84.5392 22.0034C83.8389 21.5591 83.0344 21.4264 82.2348 21.7634C82.0311 21.8502 81.8722 22.034 81.6934 22.177C81.6189 22.2383 81.5444 22.2945 81.4004 22.4119L81.4103 22.4068Z" fill="#1B1918"/>
<path d="M122.547 1.61362V7.36341C122.547 7.36341 122.512 7.36341 122.497 7.36341C122.258 6.70979 122.035 6.05106 121.772 5.40766C121.365 4.4017 120.615 3.6817 119.83 3.00255C118.782 2.09362 117.595 1.48595 116.284 1.09787C115.449 0.852761 114.605 0.730217 113.766 0.868089C112.663 1.05192 111.829 1.73106 111.278 2.7268C110.736 3.69702 110.483 4.77446 110.384 5.88255C110.255 7.34808 110.905 8.37957 112.117 9.07403C112.981 9.56935 113.925 9.81957 114.893 10.0034C115.911 10.1974 116.934 10.3659 117.933 10.6366C119.572 11.0808 121.116 11.7447 122.328 13.0519C123.013 13.7923 123.416 14.6757 123.624 15.6817C123.848 16.7489 123.803 17.806 123.575 18.8477C123.162 20.7268 122.055 22.0545 120.366 22.8255C118.693 23.5915 116.92 23.7702 115.117 23.5966C114.357 23.5251 113.572 23.4638 112.852 23.2289C112.038 22.9634 111.253 22.56 110.503 22.1311C109.798 21.7277 109.068 21.4979 108.283 21.6306C107.985 21.6817 107.712 21.9217 107.434 22.0953C107.344 22.1515 107.285 22.2638 107.141 22.4323V16.8051C107.141 16.8051 107.175 16.8051 107.19 16.8C107.359 17.2238 107.543 17.6477 107.687 18.0817C108.273 19.8026 109.47 20.9209 110.965 21.7838C111.938 22.3455 112.961 22.7387 114.039 22.9328C114.873 23.0809 115.747 23.1881 116.582 23.086C118.539 22.8408 119.835 21.646 120.555 19.7566C120.962 18.6843 120.913 17.566 120.788 16.4732C120.694 15.6306 120.058 15.0383 119.388 14.6043C118.544 14.0579 117.62 13.6749 116.631 13.486C115.847 13.3328 115.057 13.2255 114.282 13.0315C113.264 12.7711 112.251 12.4647 111.248 12.143C110.269 11.8315 109.435 11.2596 108.73 10.4834C108.134 9.82468 107.672 9.07915 107.568 8.17021C107.473 7.33276 107.354 6.46978 107.463 5.64766C107.742 3.62553 108.794 2.08851 110.567 1.15405C112.077 0.35745 113.691 0.13276 115.38 0.347228C116.776 0.525952 118.032 1.05701 119.204 1.84339C119.88 2.29786 120.629 2.47149 121.419 2.34383C121.667 2.30298 121.901 2.10383 122.129 1.96596C122.263 1.87915 122.373 1.7617 122.547 1.61362Z" fill="#1B1918"/>
<path d="M4.15195 23.663H0.00993289C0.044698 23.566 0.0595973 23.4843 0.104295 23.4281C0.417181 23.0196 0.526443 22.5345 0.561208 22.0289C0.595973 21.5132 0.610873 20.9974 0.610873 20.4817C0.610873 14.6349 0.610873 8.78809 0.60094 2.93618C0.60094 2.19575 0.615839 1.44511 0.268188 0.760853C0.193691 0.607661 0.104295 0.464686 0 0.285963C0.109262 0.27575 0.173826 0.260437 0.243356 0.260437C3.35235 0.260437 6.46134 0.260436 9.57034 0.275756C10.5636 0.280862 11.5519 0.3932 12.4956 0.720008C14.2537 1.32256 15.5003 2.48171 16.0615 4.37107C16.4042 5.5149 16.5184 6.68426 16.434 7.86383C16.3446 9.09447 16.0317 10.2689 15.2619 11.2545C14.6162 12.0817 13.7471 12.5566 12.7985 12.9038C11.6761 13.3123 10.514 13.3838 9.33691 13.3736C7.52416 13.3634 5.71141 13.3736 3.89369 13.3634C3.58577 13.3634 3.49638 13.4502 3.49638 13.7668C3.51128 16.223 3.49141 18.6792 3.51624 21.1353C3.52617 21.9677 3.59074 22.8051 4.13208 23.5047C4.14698 23.5302 4.14201 23.5762 4.15195 23.6681V23.663ZM3.53611 0.847668C3.52121 0.990647 3.50631 1.08766 3.50631 1.17958C3.50631 4.9532 3.50631 8.72682 3.50134 12.5004C3.50134 12.766 3.58081 12.8579 3.83906 12.8579C5.62698 12.8477 7.41987 12.8681 9.20779 12.8426C10.057 12.8272 10.8964 12.7047 11.6215 12.1634C12.8879 11.2289 13.3796 9.86044 13.4938 8.34895C13.6329 6.56171 13.5634 4.77447 12.9326 3.06384C12.6545 2.30299 12.2423 1.65958 11.5172 1.27149C10.9113 0.949789 10.2507 0.857886 9.5902 0.852779C7.68309 0.83746 5.78094 0.852779 3.87383 0.852779H3.53114L3.53611 0.847668Z" fill="#1B1918"/>
<path d="M132.977 0.377862C133.155 0.347224 133.275 0.311477 133.394 0.311477C137.958 0.311477 142.522 0.311488 147.086 0.306381C147.369 0.306381 147.484 0.393184 147.464 0.699567C147.444 1.00595 147.459 1.31234 147.459 1.69532C146.818 1.08766 146.098 0.975316 145.343 0.975316C142.512 0.975316 139.681 0.970215 136.85 0.965109C136.771 0.965109 136.691 0.980422 136.587 0.990635V11.2136C136.691 11.2238 136.791 11.2391 136.89 11.2391C139.502 11.2391 142.11 11.2289 144.722 11.2187C145.437 11.2187 146.128 11.1115 146.714 10.6213C146.739 10.6008 146.778 10.6009 146.838 10.5855V12.5413C146.54 12.3932 146.262 12.194 145.959 12.1225C145.427 11.9949 144.881 11.8774 144.34 11.8723C141.857 11.8417 139.373 11.8621 136.89 11.8468C136.622 11.8468 136.557 11.9387 136.557 12.1992C136.562 15.7072 136.562 19.2204 136.557 22.7285C136.557 23.0043 136.637 23.1064 136.915 23.1064C139.632 23.0962 142.343 23.1166 145.06 23.0911C145.73 23.086 146.411 22.9583 147.076 22.8306C147.349 22.7796 147.593 22.5702 147.896 22.4068C147.896 22.7643 147.906 23.1472 147.886 23.5302C147.886 23.5864 147.762 23.6528 147.687 23.6783C147.603 23.7038 147.503 23.6885 147.409 23.6885H133.473C133.379 23.6885 133.275 23.714 133.2 23.6732C133.145 23.6425 133.081 23.4791 133.106 23.4536C133.503 22.9838 133.563 22.4017 133.617 21.8247C133.652 21.4825 133.647 21.1302 133.647 20.783C133.642 14.6247 133.637 8.46637 133.622 2.30807C133.622 1.63914 133.493 0.985527 132.977 0.382974V0.377862Z" fill="#1B1918"/>
<path d="M54.9189 0.255324C56.3046 0.255324 57.7051 0.255324 59.1752 0.255324C58.6487 0.786388 58.5345 1.40425 58.5345 2.06808C58.5097 6.31659 58.46 10.5651 58.4551 14.8136C58.4551 15.7481 58.5544 16.6928 58.7133 17.6119C58.9765 19.1336 59.4136 20.5992 60.4913 21.7634C61.2065 22.5345 62.1054 22.9277 63.1185 22.9634C64.5737 23.0196 65.9792 22.7694 67.2705 22.0443C68.383 21.4213 69.1925 20.4766 69.7239 19.297C70.0616 18.5515 70.31 17.7702 70.3547 16.9379C70.3994 16.0698 70.4887 15.2017 70.4887 14.3336C70.4987 10.3558 70.4887 6.37788 70.4887 2.40001C70.4887 1.67491 70.3894 0.985541 69.9027 0.418732C69.8828 0.3932 69.8828 0.352345 69.863 0.270643C70.5185 0.270643 71.1542 0.270643 71.8347 0.270643C71.045 1.2766 71.2039 2.46639 71.1989 3.60511C71.1741 7.13873 71.1989 10.6723 71.189 14.206C71.189 15.5132 71.0847 16.8153 70.7569 18.0766C70.3696 19.5677 69.7438 20.9209 68.5469 21.9217C67.7572 22.5804 66.8732 23.0145 65.8898 23.2851C64.6383 23.6323 63.3768 23.6374 62.1203 23.5302C60.5608 23.3974 59.1106 22.8817 57.9485 21.7328C57.1191 20.9157 56.5579 19.92 56.1904 18.7864C55.7235 17.3209 55.5894 15.8196 55.5944 14.2877C55.5993 10.5753 55.6043 6.85788 55.5745 3.14554C55.5695 2.43575 55.4355 1.72086 55.3113 1.02128C55.2616 0.75575 55.063 0.515755 54.9239 0.245117L54.9189 0.255324Z" fill="#1B1918"/>
<path d="M23.824 12.1072C23.7495 9.82467 24.276 7.75148 25.3189 5.8417C26.4413 3.77872 28.0803 2.25701 30.1761 1.27659C31.7306 0.551483 33.3596 0.219567 35.0482 0.28595C38.1522 0.408503 40.7844 1.63404 42.8604 4.05957C43.8338 5.19319 44.5291 6.51063 44.986 7.94041C45.2294 8.69616 45.3635 9.49786 45.4529 10.2894C45.5522 11.1523 45.6217 12.0306 45.5721 12.8936C45.3734 16.2128 44.256 19.1081 41.7181 21.2732C40.8192 22.0443 39.7911 22.5957 38.6836 22.9991C36.7864 23.6834 34.8396 23.8366 32.8778 23.5404C30.0867 23.1166 27.7177 21.8502 25.9894 19.4604C25.16 18.3115 24.6038 17.0298 24.2462 15.6511C23.9432 14.4715 23.7744 13.2715 23.824 12.1123V12.1072ZM26.8436 12.0408C26.9578 12.9804 27.0621 13.9149 27.1962 14.8443C27.2807 15.4008 27.3601 15.9728 27.5389 16.5038C27.827 17.3464 28.1498 18.1787 28.5372 18.9753C29.1083 20.1447 29.9129 21.1455 30.9707 21.8808C32.5749 22.9991 34.3529 23.2596 36.2302 22.8511C37.4718 22.5804 38.5297 21.9523 39.4137 21.023C40.5957 19.777 41.3605 18.2808 41.7926 16.5957C41.9913 15.8042 42.2197 15.0179 42.334 14.2162C42.6667 11.8059 42.4333 9.4468 41.6585 7.14382C41.2016 5.78552 40.6007 4.51403 39.6918 3.41105C38.3658 1.80765 36.697 0.908925 34.6558 0.888499C33.9655 0.883393 33.2503 1.08766 32.5799 1.31234C31.4475 1.70042 30.4989 2.43063 29.7391 3.37021C28.418 5.00425 27.673 6.93446 27.231 8.98723C27.0174 9.98298 26.9678 11.0145 26.8387 12.0459L26.8436 12.0408Z" fill="#1B1918"/>
<path d="M81.4103 22.4068V16.6928C81.4103 16.6928 81.455 16.6775 81.4749 16.6672C81.6388 17.0809 81.8225 17.4894 81.9566 17.9132C82.5625 19.8025 83.8637 21.0179 85.5126 21.9013C86.6052 22.4834 87.7525 22.897 88.9891 23.0043C89.4808 23.0451 89.9725 23.1319 90.4642 23.1217C91.9094 23.0809 93.0914 22.4732 94.035 21.314C95.1376 19.966 95.3362 18.3779 95.1773 16.7285C95.073 15.6409 94.333 14.9362 93.4341 14.4306C92.6494 13.9864 91.8299 13.6494 90.9459 13.4809C90.2059 13.3379 89.4709 13.1898 88.7309 13.0468C87.0224 12.7098 85.3338 12.3013 83.8836 11.2289C82.2695 10.034 81.6438 8.36425 81.7331 6.36255C81.7977 4.94808 82.2149 3.66128 83.1287 2.58894C83.9233 1.65447 84.9166 1.0417 86.0738 0.668938C87.4644 0.224682 88.865 0.158294 90.2754 0.423826C91.5319 0.658719 92.6593 1.25107 93.737 1.95064C94.3529 2.34894 95.0432 2.45106 95.7484 2.34383C95.9868 2.30809 96.2054 2.11405 96.4239 1.98128C96.5778 1.88937 96.7169 1.77192 96.9106 1.62894V7.40937C96.9106 7.40937 96.8758 7.41958 96.8609 7.42469C96.6523 6.86809 96.4289 6.3217 96.2401 5.76C95.9024 4.75915 95.2518 4.00341 94.5118 3.30894C93.4838 2.34384 92.2968 1.65957 90.9906 1.2051C90.0569 0.878293 89.0785 0.704679 88.1051 0.87319C86.8933 1.08255 86.039 1.85362 85.4828 2.98724C84.8918 4.19235 84.6435 5.47404 84.7577 6.81192C84.8173 7.50638 85.165 8.0732 85.6815 8.52256C86.3619 9.1149 87.1416 9.50809 88.0107 9.70213C89.009 9.92171 90.0122 10.1106 91.0105 10.3302C92.5302 10.6723 94.0152 11.1013 95.3511 11.9694C96.4934 12.7098 97.4023 13.68 97.8046 15.023C98.0827 15.9421 98.2068 16.9021 98.0429 17.903C97.9138 18.7047 97.7847 19.486 97.4321 20.2111C96.7715 21.5591 95.7037 22.4426 94.3678 22.9736C92.7686 23.6119 91.1048 23.7294 89.3964 23.617C87.6382 23.4996 86.0391 22.9532 84.5392 22.0034C83.8389 21.5591 83.0344 21.4264 82.2348 21.7634C82.0311 21.8502 81.8722 22.034 81.6934 22.177C81.6189 22.2383 81.5444 22.2945 81.4004 22.4119L81.4103 22.4068Z" fill="#1B1918"/>
<path d="M122.547 1.61362V7.36341C122.547 7.36341 122.512 7.36341 122.497 7.36341C122.258 6.70979 122.035 6.05106 121.772 5.40766C121.365 4.4017 120.615 3.6817 119.83 3.00255C118.782 2.09362 117.595 1.48595 116.284 1.09787C115.449 0.852761 114.605 0.730217 113.766 0.868089C112.663 1.05192 111.829 1.73106 111.278 2.7268C110.736 3.69702 110.483 4.77446 110.384 5.88255C110.255 7.34808 110.905 8.37957 112.117 9.07403C112.981 9.56935 113.925 9.81957 114.893 10.0034C115.911 10.1974 116.934 10.3659 117.933 10.6366C119.572 11.0808 121.116 11.7447 122.328 13.0519C123.013 13.7923 123.416 14.6757 123.624 15.6817C123.848 16.7489 123.803 17.806 123.575 18.8477C123.162 20.7268 122.055 22.0545 120.366 22.8255C118.693 23.5915 116.92 23.7702 115.117 23.5966C114.357 23.5251 113.572 23.4638 112.852 23.2289C112.038 22.9634 111.253 22.56 110.503 22.1311C109.798 21.7277 109.068 21.4979 108.283 21.6306C107.985 21.6817 107.712 21.9217 107.434 22.0953C107.344 22.1515 107.285 22.2638 107.141 22.4323V16.8051C107.141 16.8051 107.175 16.8051 107.19 16.8C107.359 17.2238 107.543 17.6477 107.687 18.0817C108.273 19.8026 109.47 20.9209 110.965 21.7838C111.938 22.3455 112.961 22.7387 114.039 22.9328C114.873 23.0809 115.747 23.1881 116.582 23.086C118.539 22.8408 119.835 21.646 120.555 19.7566C120.962 18.6843 120.913 17.566 120.788 16.4732C120.694 15.6306 120.058 15.0383 119.388 14.6043C118.544 14.0579 117.62 13.6749 116.631 13.486C115.847 13.3328 115.057 13.2255 114.282 13.0315C113.264 12.7711 112.251 12.4647 111.248 12.143C110.269 11.8315 109.435 11.2596 108.73 10.4834C108.134 9.82468 107.672 9.07915 107.568 8.17021C107.473 7.33276 107.354 6.46978 107.463 5.64766C107.742 3.62553 108.794 2.08851 110.567 1.15405C112.077 0.35745 113.691 0.13276 115.38 0.347228C116.776 0.525952 118.032 1.05701 119.204 1.84339C119.88 2.29786 120.629 2.47149 121.419 2.34383C121.667 2.30298 121.901 2.10383 122.129 1.96596C122.263 1.87915 122.373 1.7617 122.547 1.61362Z" fill="#1B1918"/>
<path d="M4.15195 23.663H0.00993289C0.044698 23.566 0.0595973 23.4843 0.104295 23.4281C0.417181 23.0196 0.526443 22.5345 0.561208 22.0289C0.595973 21.5132 0.610873 20.9974 0.610873 20.4817C0.610873 14.6349 0.610873 8.78809 0.60094 2.93618C0.60094 2.19575 0.615839 1.44511 0.268188 0.760853C0.193691 0.607661 0.104295 0.464686 0 0.285963C0.109262 0.27575 0.173826 0.260437 0.243356 0.260437C3.35235 0.260437 6.46134 0.260436 9.57034 0.275756C10.5636 0.280862 11.5519 0.3932 12.4956 0.720008C14.2537 1.32256 15.5003 2.48171 16.0615 4.37107C16.4042 5.5149 16.5184 6.68426 16.434 7.86383C16.3446 9.09447 16.0317 10.2689 15.2619 11.2545C14.6162 12.0817 13.7471 12.5566 12.7985 12.9038C11.6761 13.3123 10.514 13.3838 9.33691 13.3736C7.52416 13.3634 5.71141 13.3736 3.89369 13.3634C3.58577 13.3634 3.49638 13.4502 3.49638 13.7668C3.51128 16.223 3.49141 18.6792 3.51624 21.1353C3.52617 21.9677 3.59074 22.8051 4.13208 23.5047C4.14698 23.5302 4.14201 23.5762 4.15195 23.6681V23.663ZM3.53611 0.847668C3.52121 0.990647 3.50631 1.08766 3.50631 1.17958C3.50631 4.9532 3.50631 8.72682 3.50134 12.5004C3.50134 12.766 3.58081 12.8579 3.83906 12.8579C5.62698 12.8477 7.41987 12.8681 9.20779 12.8426C10.057 12.8272 10.8964 12.7047 11.6215 12.1634C12.8879 11.2289 13.3796 9.86044 13.4938 8.34895C13.6329 6.56171 13.5634 4.77447 12.9326 3.06384C12.6545 2.30299 12.2423 1.65958 11.5172 1.27149C10.9113 0.949789 10.2507 0.857886 9.5902 0.852779C7.68309 0.83746 5.78094 0.852779 3.87383 0.852779H3.53114L3.53611 0.847668Z" fill="#1B1918"/>
<path d="M132.977 0.377862C133.155 0.347224 133.275 0.311477 133.394 0.311477C137.958 0.311477 142.522 0.311488 147.086 0.306381C147.369 0.306381 147.484 0.393184 147.464 0.699567C147.444 1.00595 147.459 1.31234 147.459 1.69532C146.818 1.08766 146.098 0.975316 145.343 0.975316C142.512 0.975316 139.681 0.970215 136.85 0.965109C136.771 0.965109 136.691 0.980422 136.587 0.990635V11.2136C136.691 11.2238 136.791 11.2391 136.89 11.2391C139.502 11.2391 142.11 11.2289 144.722 11.2187C145.437 11.2187 146.128 11.1115 146.714 10.6213C146.739 10.6008 146.778 10.6009 146.838 10.5855V12.5413C146.54 12.3932 146.262 12.194 145.959 12.1225C145.427 11.9949 144.881 11.8774 144.34 11.8723C141.857 11.8417 139.373 11.8621 136.89 11.8468C136.622 11.8468 136.557 11.9387 136.557 12.1992C136.562 15.7072 136.562 19.2204 136.557 22.7285C136.557 23.0043 136.637 23.1064 136.915 23.1064C139.632 23.0962 142.343 23.1166 145.06 23.0911C145.73 23.086 146.411 22.9583 147.076 22.8306C147.349 22.7796 147.593 22.5702 147.896 22.4068C147.896 22.7643 147.906 23.1472 147.886 23.5302C147.886 23.5864 147.762 23.6528 147.687 23.6783C147.603 23.7038 147.503 23.6885 147.409 23.6885H133.473C133.379 23.6885 133.275 23.714 133.2 23.6732C133.145 23.6425 133.081 23.4791 133.106 23.4536C133.503 22.9838 133.563 22.4017 133.617 21.8247C133.652 21.4825 133.647 21.1302 133.647 20.783C133.642 14.6247 133.637 8.46637 133.622 2.30807C133.622 1.63914 133.493 0.985527 132.977 0.382974V0.377862Z" fill="#1B1918"/>
<path d="M54.9189 0.255324C56.3046 0.255324 57.7051 0.255324 59.1752 0.255324C58.6487 0.786388 58.5345 1.40425 58.5345 2.06808C58.5097 6.31659 58.46 10.5651 58.4551 14.8136C58.4551 15.7481 58.5544 16.6928 58.7133 17.6119C58.9765 19.1336 59.4136 20.5992 60.4913 21.7634C61.2065 22.5345 62.1054 22.9277 63.1185 22.9634C64.5737 23.0196 65.9792 22.7694 67.2705 22.0443C68.383 21.4213 69.1925 20.4766 69.7239 19.297C70.0616 18.5515 70.31 17.7702 70.3547 16.9379C70.3994 16.0698 70.4887 15.2017 70.4887 14.3336C70.4987 10.3558 70.4887 6.37788 70.4887 2.40001C70.4887 1.67491 70.3894 0.985541 69.9027 0.418732C69.8828 0.3932 69.8828 0.352345 69.863 0.270643C70.5185 0.270643 71.1542 0.270643 71.8347 0.270643C71.045 1.2766 71.2039 2.46639 71.1989 3.60511C71.1741 7.13873 71.1989 10.6723 71.189 14.206C71.189 15.5132 71.0847 16.8153 70.7569 18.0766C70.3696 19.5677 69.7438 20.9209 68.5469 21.9217C67.7572 22.5804 66.8732 23.0145 65.8898 23.2851C64.6383 23.6323 63.3768 23.6374 62.1203 23.5302C60.5608 23.3974 59.1106 22.8817 57.9485 21.7328C57.1191 20.9157 56.5579 19.92 56.1904 18.7864C55.7235 17.3209 55.5894 15.8196 55.5944 14.2877C55.5993 10.5753 55.6043 6.85788 55.5745 3.14554C55.5695 2.43575 55.4355 1.72086 55.3113 1.02128C55.2616 0.75575 55.063 0.515755 54.9239 0.245117L54.9189 0.255324Z" fill="#1B1918"/>
</g>
<defs>
<clipPath id="clip0_912_6243">
<rect width="148" height="24" fill="white"/>
</clipPath>
</defs>
</svg>
